<svg xmlns="http://www.w3.org/2000/svg">
  
  <!-- HOME -->
  <symbol id="home-icon" width="20" height="22" viewBox="0 0 20 22" fill="#000000" xmlns="http://www.w3.org/2000/svg">
    <path fill-rule="evenodd" clip-rule="evenodd" d="M9.44726 0.169172C9.78412 -0.0564698 10.2239 -0.0563841 10.5606 0.169389L19.5569 6.20058C19.8338 6.38625 20 6.69775 20 7.03119V20.1215C20 20.6738 19.5523 21.1215 19 21.1215H1C0.447715 21.1215 0 20.6738 0 20.1215V7.03119C0 6.69761 0.166328 6.386 0.44347 6.20036L9.44726 0.169172ZM2 7.56496V19.1215H18V7.56471L10.0036 2.20378L2 7.56496Z" fill="white"/>
    <path fill-rule="evenodd" clip-rule="evenodd" d="M7.11467 14.4242C7.11467 13.8719 7.56238 13.4242 8.11467 13.4242H11.8927C12.445 13.4242 12.8927 13.8719 12.8927 14.4242V20.1519C12.8927 20.7042 12.445 21.1519 11.8927 21.1519C11.3404 21.1519 10.8927 20.7042 10.8927 20.1519V15.4242H9.11467V20.1519C9.11467 20.7042 8.66695 21.1519 8.11467 21.1519C7.56238 21.1519 7.11467 20.7042 7.11467 20.1519V14.4242Z" fill="white"/>
  </symbol >

  <!-- IMAGE -->
  <symbol id="image-icon" width="25" height="21" viewBox="0 0 25 21" fill="none" xmlns="http://www.w3.org/2000/svg">
    <path d="M23.4674 16C23.4674 18.2091 21.6766 20 19.4674 20H5.00001C2.79087 20 1 18.2091 1 16V10.5V5C1 2.79086 2.79086 1 5 1H19.4674C21.6766 1 23.4674 2.79086 23.4674 5V16Z" stroke="#131921" stroke-width="2" stroke-miterlimit="10"/>
    <path d="M1 11.0285C1 11.0285 6.35583 10.3067 11.8148 13.5228C17.2737 16.7388 23.4674 16.2232 23.4674 16.2232" stroke="#131921" stroke-width="2" stroke-miterlimit="10"/>
    <path d="M16.4488 10.1777C17.9652 10.1777 19.1944 8.94846 19.1944 7.43211C19.1944 5.91576 17.9652 4.68652 16.4488 4.68652C14.9325 4.68652 13.7032 5.91576 13.7032 7.43211C13.7032 8.94846 14.9325 10.1777 16.4488 10.1777Z" stroke="#131921" stroke-width="2" stroke-miterlimit="10"/>
  </symbol>

  <!-- REVIEW -->
<symbol id="review-icon" width="32" height="21" viewBox="0 0 32 21" fill="none" xmlns="http://www.w3.org/2000/svg">
  <path d="M5.40899 17.2185C2.79858 15.5068 1.17639 13.1318 1.17639 10.5C1.17639 5.25788 7.62784 1 15.6082 1C23.5887 1 30.0401 5.25788 30.0401 10.5C30.0401 15.7421 23.5887 20 15.6082 20" stroke="#131921" stroke-width="2" stroke-miterlimit="10"/>
  <path d="M5.84782 12.4663L5.62226 18.0747L0.0401828 17.8481" stroke="#131921" stroke-width="2" stroke-miterlimit="10"/>
  <mask id="path-3-outside-1_2002_93" maskUnits="userSpaceOnUse" x="8.57288" y="6.99993" width="15" height="7" fill="black">
  <rect fill="white" x="8.57288" y="6.99993" width="15" height="7"/>
  <path d="M10.923 10.0844H11.4493C11.618 10.0844 11.757 10.0559 11.8663 9.99895C11.9757 9.93971 12.0566 9.85767 12.109 9.75286C12.1637 9.64576 12.191 9.52157 12.191 9.3803C12.191 9.25269 12.166 9.1399 12.1158 9.04192C12.068 8.94166 11.9939 8.86419 11.8937 8.8095C11.7934 8.75253 11.667 8.72405 11.5143 8.72405C11.3935 8.72405 11.2819 8.74797 11.1793 8.79583C11.0768 8.84368 10.9948 8.9109 10.9332 8.99749C10.8717 9.08407 10.8409 9.18889 10.8409 9.31194H9.85315C9.85315 9.0385 9.92607 8.80038 10.0719 8.59758C10.22 8.39478 10.4183 8.23642 10.6666 8.12249C10.915 8.00855 11.1884 7.95159 11.4869 7.95159C11.8242 7.95159 12.1193 8.00628 12.3722 8.11565C12.6251 8.22275 12.8222 8.38111 12.9635 8.59075C13.1048 8.80038 13.1754 9.06015 13.1754 9.37004C13.1754 9.52727 13.139 9.67994 13.066 9.82805C12.9931 9.97389 12.8883 10.106 12.7516 10.2245C12.6171 10.3407 12.4531 10.4342 12.2594 10.5048C12.0657 10.5732 11.8481 10.6073 11.6066 10.6073H10.923V10.0844ZM10.923 10.8329V10.3237H11.6066C11.8777 10.3237 12.1158 10.3544 12.3209 10.4159C12.526 10.4775 12.698 10.5663 12.837 10.6825C12.976 10.7965 13.0809 10.9321 13.1515 11.0893C13.2221 11.2442 13.2574 11.4163 13.2574 11.6054C13.2574 11.8378 13.213 12.0452 13.1241 12.2275C13.0353 12.4075 12.91 12.5601 12.7482 12.6855C12.5887 12.8108 12.4018 12.9065 12.1876 12.9726C11.9734 13.0364 11.7399 13.0683 11.4869 13.0683C11.2773 13.0683 11.0711 13.0398 10.8683 12.9828C10.6678 12.9236 10.4855 12.8359 10.3214 12.7197C10.1596 12.6012 10.0297 12.4531 9.93176 12.2753C9.83606 12.0953 9.78821 11.8823 9.78821 11.6362H10.776C10.776 11.7638 10.8079 11.8777 10.8717 11.978C10.9355 12.0782 11.0232 12.1568 11.1349 12.2138C11.2488 12.2708 11.3753 12.2992 11.5143 12.2992C11.6715 12.2992 11.8059 12.2708 11.9176 12.2138C12.0315 12.1545 12.1181 12.0725 12.1774 11.9677C12.2389 11.8606 12.2697 11.7364 12.2697 11.5951C12.2697 11.4129 12.2366 11.267 12.1705 11.1576C12.1045 11.046 12.0099 10.964 11.8868 10.9115C11.7638 10.8591 11.618 10.8329 11.4493 10.8329H10.923ZM17.2738 7.9721H17.4173V8.75823H17.3592C17.0994 8.75823 16.8682 8.79697 16.6654 8.87444C16.4626 8.95191 16.2905 9.06243 16.1492 9.20598C16.0102 9.34726 15.9031 9.51816 15.828 9.71868C15.755 9.9192 15.7186 10.1436 15.7186 10.392V11.2192C15.7186 11.3969 15.7357 11.5541 15.7698 11.6908C15.8063 11.8253 15.8576 11.9381 15.9237 12.0292C15.992 12.1181 16.0718 12.1853 16.1629 12.2309C16.2541 12.2742 16.3566 12.2958 16.4705 12.2958C16.5776 12.2958 16.6745 12.273 16.7611 12.2275C16.8499 12.1819 16.9251 12.1181 16.9866 12.0361C17.0504 11.9518 17.0983 11.8538 17.1302 11.7421C17.1644 11.6282 17.1815 11.504 17.1815 11.3696C17.1815 11.2351 17.1644 11.1109 17.1302 10.997C17.0983 10.8831 17.0504 10.7851 16.9866 10.7031C16.9228 10.6187 16.8454 10.5538 16.7542 10.5082C16.6631 10.4627 16.5605 10.4399 16.4466 10.4399C16.2917 10.4399 16.1549 10.4763 16.0365 10.5492C15.9202 10.6199 15.8291 10.711 15.763 10.8227C15.6969 10.9343 15.6616 11.0517 15.6571 11.1747L15.3597 10.9833C15.3665 10.8079 15.403 10.6415 15.4691 10.4843C15.5374 10.3271 15.6309 10.1881 15.7493 10.0673C15.8701 9.94426 16.0148 9.84856 16.1834 9.7802C16.352 9.70956 16.5423 9.67424 16.7542 9.67424C16.9866 9.67424 17.1906 9.71868 17.366 9.80754C17.5438 9.89641 17.6919 10.0183 17.8104 10.1733C17.9289 10.3282 18.0177 10.5071 18.077 10.7099C18.1362 10.9127 18.1658 11.1292 18.1658 11.3593C18.1658 11.6008 18.126 11.8253 18.0462 12.0326C17.9687 12.24 17.8559 12.4212 17.7078 12.5761C17.562 12.731 17.3865 12.8518 17.1815 12.9384C16.9764 13.025 16.7462 13.0683 16.491 13.0683C16.2267 13.0683 15.9863 13.0204 15.7698 12.9247C15.5557 12.8268 15.3711 12.69 15.2161 12.5146C15.0612 12.3391 14.9416 12.1306 14.8573 11.8891C14.7752 11.6476 14.7342 11.3832 14.7342 11.0961V10.7133C14.7342 10.3123 14.7923 9.9454 14.9085 9.61272C15.027 9.27776 15.1968 8.98837 15.4178 8.74456C15.6388 8.49846 15.9054 8.3082 16.2176 8.17376C16.5298 8.03932 16.8818 7.9721 17.2738 7.9721ZM22.9033 10.0741V10.9355C22.9033 11.3092 22.8635 11.6316 22.7837 11.9028C22.704 12.1716 22.5889 12.3927 22.4385 12.5658C22.2904 12.7367 22.1138 12.8632 21.9087 12.9452C21.7036 13.0273 21.4758 13.0683 21.2251 13.0683C21.0246 13.0683 20.8378 13.0432 20.6646 12.9931C20.4914 12.9407 20.3353 12.8598 20.1963 12.7504C20.0596 12.641 19.9411 12.5032 19.8408 12.3368C19.7429 12.1682 19.6677 11.9677 19.6153 11.7353C19.5629 11.5029 19.5366 11.2363 19.5366 10.9355V10.0741C19.5366 9.70045 19.5765 9.3803 19.6563 9.1137C19.7383 8.84482 19.8534 8.62493 20.0015 8.45403C20.1519 8.28313 20.3296 8.15781 20.5347 8.07805C20.7398 7.99602 20.9676 7.95501 21.2183 7.95501C21.4188 7.95501 21.6045 7.98121 21.7754 8.03362C21.9486 8.08375 22.1047 8.16236 22.2437 8.26946C22.3827 8.37656 22.5012 8.51441 22.5991 8.68303C22.6971 8.84937 22.7723 9.04876 22.8247 9.28118C22.8771 9.51132 22.9033 9.77564 22.9033 10.0741ZM21.9156 11.0654V9.94085C21.9156 9.76083 21.9053 9.60361 21.8848 9.46917C21.8666 9.33473 21.8381 9.22079 21.7993 9.12737C21.7606 9.03167 21.7128 8.95419 21.6558 8.89495C21.5988 8.8357 21.5339 8.79241 21.461 8.76506C21.388 8.73772 21.3072 8.72405 21.2183 8.72405C21.1066 8.72405 21.0075 8.7457 20.9209 8.78899C20.8366 8.83228 20.7648 8.90178 20.7056 8.99749C20.6463 9.09091 20.6008 9.21624 20.5689 9.37346C20.5393 9.52841 20.5244 9.71754 20.5244 9.94085V11.0654C20.5244 11.2454 20.5336 11.4037 20.5518 11.5405C20.5723 11.6772 20.6019 11.7945 20.6406 11.8925C20.6817 11.9882 20.7295 12.0668 20.7842 12.1283C20.8412 12.1876 20.9061 12.2309 20.979 12.2582C21.0542 12.2856 21.1363 12.2992 21.2251 12.2992C21.3345 12.2992 21.4313 12.2776 21.5156 12.2343C21.6022 12.1887 21.6752 12.1181 21.7344 12.0224C21.7959 11.9244 21.8415 11.7968 21.8711 11.6396C21.9007 11.4823 21.9156 11.2909 21.9156 11.0654Z"/>
  </mask>
  <path d="M10.923 10.0844H11.4493C11.618 10.0844 11.757 10.0559 11.8663 9.99895C11.9757 9.93971 12.0566 9.85767 12.109 9.75286C12.1637 9.64576 12.191 9.52157 12.191 9.3803C12.191 9.25269 12.166 9.1399 12.1158 9.04192C12.068 8.94166 11.9939 8.86419 11.8937 8.8095C11.7934 8.75253 11.667 8.72405 11.5143 8.72405C11.3935 8.72405 11.2819 8.74797 11.1793 8.79583C11.0768 8.84368 10.9948 8.9109 10.9332 8.99749C10.8717 9.08407 10.8409 9.18889 10.8409 9.31194H9.85315C9.85315 9.0385 9.92607 8.80038 10.0719 8.59758C10.22 8.39478 10.4183 8.23642 10.6666 8.12249C10.915 8.00855 11.1884 7.95159 11.4869 7.95159C11.8242 7.95159 12.1193 8.00628 12.3722 8.11565C12.6251 8.22275 12.8222 8.38111 12.9635 8.59075C13.1048 8.80038 13.1754 9.06015 13.1754 9.37004C13.1754 9.52727 13.139 9.67994 13.066 9.82805C12.9931 9.97389 12.8883 10.106 12.7516 10.2245C12.6171 10.3407 12.4531 10.4342 12.2594 10.5048C12.0657 10.5732 11.8481 10.6073 11.6066 10.6073H10.923V10.0844ZM10.923 10.8329V10.3237H11.6066C11.8777 10.3237 12.1158 10.3544 12.3209 10.4159C12.526 10.4775 12.698 10.5663 12.837 10.6825C12.976 10.7965 13.0809 10.9321 13.1515 11.0893C13.2221 11.2442 13.2574 11.4163 13.2574 11.6054C13.2574 11.8378 13.213 12.0452 13.1241 12.2275C13.0353 12.4075 12.91 12.5601 12.7482 12.6855C12.5887 12.8108 12.4018 12.9065 12.1876 12.9726C11.9734 13.0364 11.7399 13.0683 11.4869 13.0683C11.2773 13.0683 11.0711 13.0398 10.8683 12.9828C10.6678 12.9236 10.4855 12.8359 10.3214 12.7197C10.1596 12.6012 10.0297 12.4531 9.93176 12.2753C9.83606 12.0953 9.78821 11.8823 9.78821 11.6362H10.776C10.776 11.7638 10.8079 11.8777 10.8717 11.978C10.9355 12.0782 11.0232 12.1568 11.1349 12.2138C11.2488 12.2708 11.3753 12.2992 11.5143 12.2992C11.6715 12.2992 11.8059 12.2708 11.9176 12.2138C12.0315 12.1545 12.1181 12.0725 12.1774 11.9677C12.2389 11.8606 12.2697 11.7364 12.2697 11.5951C12.2697 11.4129 12.2366 11.267 12.1705 11.1576C12.1045 11.046 12.0099 10.964 11.8868 10.9115C11.7638 10.8591 11.618 10.8329 11.4493 10.8329H10.923ZM17.2738 7.9721H17.4173V8.75823H17.3592C17.0994 8.75823 16.8682 8.79697 16.6654 8.87444C16.4626 8.95191 16.2905 9.06243 16.1492 9.20598C16.0102 9.34726 15.9031 9.51816 15.828 9.71868C15.755 9.9192 15.7186 10.1436 15.7186 10.392V11.2192C15.7186 11.3969 15.7357 11.5541 15.7698 11.6908C15.8063 11.8253 15.8576 11.9381 15.9237 12.0292C15.992 12.1181 16.0718 12.1853 16.1629 12.2309C16.2541 12.2742 16.3566 12.2958 16.4705 12.2958C16.5776 12.2958 16.6745 12.273 16.7611 12.2275C16.8499 12.1819 16.9251 12.1181 16.9866 12.0361C17.0504 11.9518 17.0983 11.8538 17.1302 11.7421C17.1644 11.6282 17.1815 11.504 17.1815 11.3696C17.1815 11.2351 17.1644 11.1109 17.1302 10.997C17.0983 10.8831 17.0504 10.7851 16.9866 10.7031C16.9228 10.6187 16.8454 10.5538 16.7542 10.5082C16.6631 10.4627 16.5605 10.4399 16.4466 10.4399C16.2917 10.4399 16.1549 10.4763 16.0365 10.5492C15.9202 10.6199 15.8291 10.711 15.763 10.8227C15.6969 10.9343 15.6616 11.0517 15.6571 11.1747L15.3597 10.9833C15.3665 10.8079 15.403 10.6415 15.4691 10.4843C15.5374 10.3271 15.6309 10.1881 15.7493 10.0673C15.8701 9.94426 16.0148 9.84856 16.1834 9.7802C16.352 9.70956 16.5423 9.67424 16.7542 9.67424C16.9866 9.67424 17.1906 9.71868 17.366 9.80754C17.5438 9.89641 17.6919 10.0183 17.8104 10.1733C17.9289 10.3282 18.0177 10.5071 18.077 10.7099C18.1362 10.9127 18.1658 11.1292 18.1658 11.3593C18.1658 11.6008 18.126 11.8253 18.0462 12.0326C17.9687 12.24 17.8559 12.4212 17.7078 12.5761C17.562 12.731 17.3865 12.8518 17.1815 12.9384C16.9764 13.025 16.7462 13.0683 16.491 13.0683C16.2267 13.0683 15.9863 13.0204 15.7698 12.9247C15.5557 12.8268 15.3711 12.69 15.2161 12.5146C15.0612 12.3391 14.9416 12.1306 14.8573 11.8891C14.7752 11.6476 14.7342 11.3832 14.7342 11.0961V10.7133C14.7342 10.3123 14.7923 9.9454 14.9085 9.61272C15.027 9.27776 15.1968 8.98837 15.4178 8.74456C15.6388 8.49846 15.9054 8.3082 16.2176 8.17376C16.5298 8.03932 16.8818 7.9721 17.2738 7.9721ZM22.9033 10.0741V10.9355C22.9033 11.3092 22.8635 11.6316 22.7837 11.9028C22.704 12.1716 22.5889 12.3927 22.4385 12.5658C22.2904 12.7367 22.1138 12.8632 21.9087 12.9452C21.7036 13.0273 21.4758 13.0683 21.2251 13.0683C21.0246 13.0683 20.8378 13.0432 20.6646 12.9931C20.4914 12.9407 20.3353 12.8598 20.1963 12.7504C20.0596 12.641 19.9411 12.5032 19.8408 12.3368C19.7429 12.1682 19.6677 11.9677 19.6153 11.7353C19.5629 11.5029 19.5366 11.2363 19.5366 10.9355V10.0741C19.5366 9.70045 19.5765 9.3803 19.6563 9.1137C19.7383 8.84482 19.8534 8.62493 20.0015 8.45403C20.1519 8.28313 20.3296 8.15781 20.5347 8.07805C20.7398 7.99602 20.9676 7.95501 21.2183 7.95501C21.4188 7.95501 21.6045 7.98121 21.7754 8.03362C21.9486 8.08375 22.1047 8.16236 22.2437 8.26946C22.3827 8.37656 22.5012 8.51441 22.5991 8.68303C22.6971 8.84937 22.7723 9.04876 22.8247 9.28118C22.8771 9.51132 22.9033 9.77564 22.9033 10.0741ZM21.9156 11.0654V9.94085C21.9156 9.76083 21.9053 9.60361 21.8848 9.46917C21.8666 9.33473 21.8381 9.22079 21.7993 9.12737C21.7606 9.03167 21.7128 8.95419 21.6558 8.89495C21.5988 8.8357 21.5339 8.79241 21.461 8.76506C21.388 8.73772 21.3072 8.72405 21.2183 8.72405C21.1066 8.72405 21.0075 8.7457 20.9209 8.78899C20.8366 8.83228 20.7648 8.90178 20.7056 8.99749C20.6463 9.09091 20.6008 9.21624 20.5689 9.37346C20.5393 9.52841 20.5244 9.71754 20.5244 9.94085V11.0654C20.5244 11.2454 20.5336 11.4037 20.5518 11.5405C20.5723 11.6772 20.6019 11.7945 20.6406 11.8925C20.6817 11.9882 20.7295 12.0668 20.7842 12.1283C20.8412 12.1876 20.9061 12.2309 20.979 12.2582C21.0542 12.2856 21.1363 12.2992 21.2251 12.2992C21.3345 12.2992 21.4313 12.2776 21.5156 12.2343C21.6022 12.1887 21.6752 12.1181 21.7344 12.0224C21.7959 11.9244 21.8415 11.7968 21.8711 11.6396C21.9007 11.4823 21.9156 11.2909 21.9156 11.0654Z" fill="#131921"/>
  <path d="M10.923 10.0844V9.7844H10.623V10.0844H10.923ZM11.8663 9.99895L12.0049 10.2651L12.0092 10.2627L11.8663 9.99895ZM12.109 9.75286L11.8418 9.61642L11.8407 9.61869L12.109 9.75286ZM12.1158 9.04192L11.845 9.17119L11.8488 9.17856L12.1158 9.04192ZM11.8937 8.8095L11.7455 9.07037L11.75 9.07287L11.8937 8.8095ZM10.9332 8.99749L10.6887 8.82372L10.9332 8.99749ZM10.8409 9.31194V9.61194H11.1409V9.31194H10.8409ZM9.85315 9.31194H9.55315V9.61194H9.85315V9.31194ZM10.0719 8.59758L9.82963 8.42064L9.82834 8.42244L10.0719 8.59758ZM10.6666 8.12249L10.5415 7.84981L10.6666 8.12249ZM12.3722 8.11565L12.2531 8.39102L12.2552 8.39191L12.3722 8.11565ZM12.9635 8.59075L13.2123 8.42309L12.9635 8.59075ZM13.066 9.82805L13.3344 9.96222L13.3352 9.96056L13.066 9.82805ZM12.7516 10.2245L12.9478 10.4515L12.9481 10.4512L12.7516 10.2245ZM12.2594 10.5048L12.3593 10.7877L12.3622 10.7867L12.2594 10.5048ZM10.923 10.6073H10.623V10.9073H10.923V10.6073ZM10.923 10.8329H10.623V11.1329H10.923V10.8329ZM10.923 10.3237V10.0237H10.623V10.3237H10.923ZM12.837 10.6825L12.6446 10.9127L12.6469 10.9146L12.837 10.6825ZM13.1515 11.0893L12.8778 11.2122L12.8785 11.2137L13.1515 11.0893ZM13.1241 12.2275L13.3932 12.3603L13.3938 12.3589L13.1241 12.2275ZM12.7482 12.6855L12.5644 12.4483L12.5628 12.4496L12.7482 12.6855ZM12.1876 12.9726L12.2733 13.2601L12.2761 13.2593L12.1876 12.9726ZM10.8683 12.9828L10.7833 13.2706L10.7872 13.2717L10.8683 12.9828ZM10.3214 12.7197L10.1441 12.9617L10.148 12.9645L10.3214 12.7197ZM9.93176 12.2753L9.66684 12.4162L9.66904 12.4202L9.93176 12.2753ZM9.78821 11.6362V11.3362H9.48821V11.6362H9.78821ZM10.776 11.6362H11.076V11.3362H10.776V11.6362ZM11.1349 12.2138L10.9985 12.481L11.0007 12.4821L11.1349 12.2138ZM11.9176 12.2138L12.0539 12.481L12.056 12.48L11.9176 12.2138ZM12.1774 11.9677L11.9172 11.8183L11.9162 11.8201L12.1774 11.9677ZM12.1705 11.1576L11.9123 11.3104L11.9138 11.3128L12.1705 11.1576ZM10.923 10.0844V10.3844H11.4493V10.0844V9.7844H10.923V10.0844ZM11.4493 10.0844V10.3844C11.6494 10.3844 11.84 10.3509 12.0049 10.265L11.8663 9.99895L11.7278 9.73288C11.674 9.76089 11.5866 9.7844 11.4493 9.7844V10.0844ZM11.8663 9.99895L12.0092 10.2627C12.1692 10.1761 12.2957 10.0504 12.3773 9.88702L12.109 9.75286L11.8407 9.61869C11.8175 9.66499 11.7822 9.70333 11.7234 9.73516L11.8663 9.99895ZM12.109 9.75286L12.3762 9.88929C12.4559 9.73315 12.491 9.56073 12.491 9.3803H12.191H11.891C11.891 9.48242 11.8715 9.55837 11.8418 9.61642L12.109 9.75286ZM12.191 9.3803H12.491C12.491 9.21277 12.4579 9.05183 12.3829 8.90528L12.1158 9.04192L11.8488 9.17856C11.8741 9.22797 11.891 9.29262 11.891 9.3803H12.191ZM12.1158 9.04192L12.3866 8.9127C12.3107 8.75378 12.1914 8.63014 12.0373 8.54613L11.8937 8.8095L11.75 9.07287C11.7965 9.09823 11.8252 9.12954 11.8451 9.17114L12.1158 9.04192ZM11.8937 8.8095L12.0419 8.54866C11.8841 8.45903 11.7026 8.42405 11.5143 8.42405V8.72405V9.02405C11.6313 9.02405 11.7027 9.04604 11.7455 9.07033L11.8937 8.8095ZM11.5143 8.72405V8.42405C11.3527 8.42405 11.1974 8.45635 11.0525 8.52397L11.1793 8.79583L11.3062 9.06768C11.3664 9.0396 11.4343 9.02405 11.5143 9.02405V8.72405ZM11.1793 8.79583L11.0525 8.52397C10.906 8.5923 10.7822 8.69203 10.6887 8.82372L10.9332 8.99749L11.1778 9.17125C11.2073 9.12976 11.2475 9.09506 11.3062 9.06768L11.1793 8.79583ZM10.9332 8.99749L10.6887 8.82372C10.5856 8.96879 10.5409 9.13681 10.5409 9.31194H10.8409H11.1409C11.1409 9.24097 11.1578 9.19935 11.1778 9.17125L10.9332 8.99749ZM10.8409 9.31194V9.01194H9.85315V9.31194V9.61194H10.8409V9.31194ZM9.85315 9.31194H10.1531C10.1531 9.0951 10.2098 8.91965 10.3155 8.77273L10.0719 8.59758L9.82834 8.42244C9.64232 8.68112 9.55315 8.98191 9.55315 9.31194H9.85315ZM10.0719 8.59758L10.3142 8.77452C10.4294 8.61672 10.5857 8.48966 10.7917 8.39517L10.6666 8.12249L10.5415 7.84981C10.2508 7.98318 10.0106 8.17285 9.82963 8.42065L10.0719 8.59758ZM10.6666 8.12249L10.7917 8.39517C10.9973 8.30084 11.2276 8.25159 11.4869 8.25159V7.95159V7.65159C11.1493 7.65159 10.8327 7.71626 10.5415 7.84981L10.6666 8.12249ZM11.4869 7.95159V8.25159C11.7922 8.25159 12.0452 8.30109 12.2531 8.39101L12.3722 8.11565L12.4913 7.84029C12.1933 7.71146 11.8562 7.65159 11.4869 7.65159V7.95159ZM12.3722 8.11565L12.2552 8.39191C12.4594 8.47838 12.6087 8.60115 12.7147 8.7584L12.9635 8.59075L13.2123 8.42309C13.0357 8.16108 12.7908 7.96711 12.4892 7.83939L12.3722 8.11565ZM12.9635 8.59075L12.7147 8.7584C12.8157 8.9083 12.8754 9.10627 12.8754 9.37004H13.1754H13.4754C13.4754 9.01403 13.3938 8.69247 13.2123 8.42309L12.9635 8.59075ZM13.1754 9.37004H12.8754C12.8754 9.47902 12.8506 9.58654 12.7969 9.69555L13.066 9.82805L13.3352 9.96056C13.4274 9.77334 13.4754 9.57552 13.4754 9.37004H13.1754ZM13.066 9.82805L12.7977 9.69389C12.7443 9.80078 12.6653 9.90233 12.5551 9.99783L12.7516 10.2245L12.9481 10.4512C13.1113 10.3098 13.242 10.147 13.3344 9.96222L13.066 9.82805ZM12.7516 10.2245L12.5554 9.99758C12.4525 10.0865 12.3215 10.1628 12.1566 10.223L12.2594 10.5048L12.3622 10.7867C12.5847 10.7055 12.7818 10.595 12.9478 10.4515L12.7516 10.2245ZM12.2594 10.5048L12.1596 10.2219C12.003 10.2772 11.8199 10.3073 11.6066 10.3073V10.6073V10.9073C11.8763 10.9073 12.1284 10.8692 12.3592 10.7877L12.2594 10.5048ZM11.6066 10.6073V10.3073H10.923V10.6073V10.9073H11.6066V10.6073ZM10.923 10.6073H11.223V10.0844H10.923H10.623V10.6073H10.923ZM10.923 10.8329H11.223V10.3237H10.923H10.623V10.8329H10.923ZM10.923 10.3237V10.6237H11.6066V10.3237V10.0237H10.923V10.3237ZM11.6066 10.3237V10.6237C11.8559 10.6237 12.0639 10.652 12.2347 10.7033L12.3209 10.4159L12.4071 10.1286C12.1678 10.0568 11.8995 10.0237 11.6066 10.0237V10.3237ZM12.3209 10.4159L12.2347 10.7033C12.4078 10.7552 12.5419 10.8268 12.6446 10.9127L12.837 10.6825L13.0295 10.4524C12.8542 10.3058 12.6442 10.1997 12.4071 10.1286L12.3209 10.4159ZM12.837 10.6825L12.6469 10.9146C12.7515 11.0004 12.827 11.0991 12.8778 11.2122L13.1515 11.0893L13.4251 10.9663C13.3347 10.765 13.2005 10.5926 13.0272 10.4505L12.837 10.6825ZM13.1515 11.0893L12.8785 11.2137C12.9295 11.3255 12.9574 11.4544 12.9574 11.6054H13.2574H13.5574C13.5574 11.3781 13.5148 11.163 13.4245 10.9648L13.1515 11.0893ZM13.2574 11.6054H12.9574C12.9574 11.7989 12.9207 11.9603 12.8545 12.096L13.1241 12.2275L13.3938 12.3589C13.5054 12.1301 13.5574 11.8767 13.5574 11.6054H13.2574ZM13.1241 12.2275L12.8551 12.0947C12.7868 12.2331 12.691 12.3503 12.5644 12.4483L12.7482 12.6855L12.9319 12.9226C13.1289 12.77 13.2837 12.5819 13.3932 12.3603L13.1241 12.2275ZM12.7482 12.6855L12.5628 12.4496C12.4351 12.5499 12.2819 12.6295 12.0992 12.6859L12.1876 12.9726L12.2761 13.2593C12.5217 13.1835 12.7422 13.0717 12.9335 12.9214L12.7482 12.6855ZM12.1876 12.9726L12.102 12.6851C11.919 12.7396 11.7146 12.7683 11.4869 12.7683V13.0683V13.3683C11.7651 13.3683 12.0279 13.3332 12.2733 13.2601L12.1876 12.9726ZM11.4869 13.0683V12.7683C11.3049 12.7683 11.1259 12.7436 10.9494 12.694L10.8683 12.9828L10.7872 13.2717C11.0162 13.336 11.2497 13.3683 11.4869 13.3683V13.0683ZM10.8683 12.9828L10.9533 12.6951C10.7831 12.6449 10.6309 12.5712 10.4948 12.4748L10.3214 12.7197L10.148 12.9645C10.34 13.1005 10.5524 13.2023 10.7833 13.2705L10.8683 12.9828ZM10.3214 12.7197L10.4987 12.4776C10.3725 12.3852 10.2717 12.2705 10.1945 12.1305L9.93176 12.2753L9.66904 12.4202C9.78784 12.6356 9.94671 12.8171 10.1441 12.9617L10.3214 12.7197ZM9.93176 12.2753L10.1967 12.1345C10.1283 12.006 10.0882 11.8432 10.0882 11.6362H9.78821H9.48821C9.48821 11.9213 9.5438 12.1847 9.66687 12.4161L9.93176 12.2753ZM9.78821 11.6362V11.9362H10.776V11.6362V11.3362H9.78821V11.6362ZM10.776 11.6362H10.476C10.476 11.8164 10.5219 11.987 10.6186 12.139L10.8717 11.978L11.1248 11.8169C11.0939 11.7683 11.076 11.7111 11.076 11.6362H10.776ZM10.8717 11.978L10.6186 12.139C10.7128 12.287 10.8419 12.4011 10.9985 12.481L11.1349 12.2138L11.2712 11.9466C11.2046 11.9125 11.1583 11.8695 11.1248 11.8169L10.8717 11.978ZM11.1349 12.2138L11.0007 12.4821C11.16 12.5618 11.333 12.5992 11.5143 12.5992V12.2992V11.9992C11.4175 11.9992 11.3376 11.9798 11.2691 11.9455L11.1349 12.2138ZM11.5143 12.2992V12.5992C11.7071 12.5992 11.8907 12.5643 12.0539 12.481L11.9176 12.2138L11.7813 11.9466C11.7212 11.9772 11.6359 11.9992 11.5143 11.9992V12.2992ZM11.9176 12.2138L12.056 12.48C12.2179 12.3958 12.3488 12.2741 12.4385 12.1153L12.1774 11.9677L11.9162 11.8201C11.8875 11.8709 11.8452 11.9133 11.7792 11.9476L11.9176 12.2138ZM12.1774 11.9677L12.4375 12.1171C12.5287 11.9584 12.5697 11.7812 12.5697 11.5951H12.2697H11.9697C11.9697 11.6916 11.9491 11.7628 11.9172 11.8183L12.1774 11.9677ZM12.2697 11.5951H12.5697C12.5697 11.3803 12.5312 11.1745 12.4273 11.0025L12.1705 11.1576L11.9138 11.3128C11.942 11.3595 11.9697 11.4454 11.9697 11.5951H12.2697ZM12.1705 11.1576L12.4287 11.0048C12.329 10.8364 12.1843 10.7122 12.0044 10.6355L11.8868 10.9115L11.7693 11.1876C11.8355 11.2157 11.8799 11.2556 11.9124 11.3104L12.1705 11.1576ZM11.8868 10.9115L12.0044 10.6355C11.8359 10.5638 11.6482 10.5329 11.4493 10.5329V10.8329V11.1329C11.5877 11.1329 11.6917 11.1545 11.7693 11.1876L11.8868 10.9115ZM11.4493 10.8329V10.5329H10.923V10.8329V11.1329H11.4493V10.8329ZM17.4173 7.9721H17.7173V7.6721H17.4173V7.9721ZM17.4173 8.75823V9.05823H17.7173V8.75823H17.4173ZM16.1492 9.20598L15.9354 8.99555L15.9354 8.99558L16.1492 9.20598ZM15.828 9.71868L15.547 9.61334L15.546 9.61615L15.828 9.71868ZM15.7698 11.6908L15.4787 11.7636L15.4803 11.7694L15.7698 11.6908ZM15.9237 12.0292L15.6807 12.2054L15.6859 12.2121L15.9237 12.0292ZM16.1629 12.2309L16.0287 12.4993L16.0342 12.5019L16.1629 12.2309ZM16.7611 12.2275L16.6242 11.9605L16.6213 11.962L16.7611 12.2275ZM16.9866 12.0361L16.7474 11.855L16.7466 11.8561L16.9866 12.0361ZM17.1302 11.7421L16.8428 11.6559L16.8417 11.6597L17.1302 11.7421ZM17.1302 10.997L16.8413 11.0779L16.8429 11.0832L17.1302 10.997ZM16.9866 10.7031L16.7474 10.8841L16.7498 10.8872L16.9866 10.7031ZM16.0365 10.5492L16.1923 10.8056L16.1937 10.8047L16.0365 10.5492ZM15.6571 11.1747L15.4947 11.427L15.9374 11.7119L15.9569 11.1858L15.6571 11.1747ZM15.3597 10.9833L15.0599 10.9716L15.0532 11.1429L15.1973 11.2356L15.3597 10.9833ZM15.4691 10.4843L15.1939 10.3647L15.1925 10.3681L15.4691 10.4843ZM15.7493 10.0673L15.5352 9.85717L15.5352 9.85721L15.7493 10.0673ZM16.1834 9.7802L16.2961 10.0582L16.2993 10.0569L16.1834 9.7802ZM17.366 9.80754L17.2305 10.0752L17.2319 10.0759L17.366 9.80754ZM17.8104 10.1733L17.5721 10.3555L17.8104 10.1733ZM18.0462 12.0326L17.7662 11.9249L17.7652 11.9276L18.0462 12.0326ZM17.7078 12.5761L17.491 12.3688L17.4894 12.3705L17.7078 12.5761ZM15.7698 12.9247L15.645 13.1976L15.6485 13.1991L15.7698 12.9247ZM14.8573 11.8891L14.5732 11.9856L14.574 11.988L14.8573 11.8891ZM14.9085 9.61272L14.6257 9.51267L14.6253 9.51379L14.9085 9.61272ZM15.4178 8.74456L15.6401 8.94605L15.641 8.94502L15.4178 8.74456ZM16.2176 8.17376L16.0989 7.89822L16.2176 8.17376ZM17.2738 7.9721V8.2721H17.4173V7.9721V7.6721H17.2738V7.9721ZM17.4173 7.9721H17.1173V8.75823H17.4173H17.7173V7.9721H17.4173ZM17.4173 8.75823V8.45823H17.3592V8.75823V9.05823H17.4173V8.75823ZM17.3592 8.75823V8.45823C17.0699 8.45823 16.8013 8.50137 16.5583 8.59419L16.6654 8.87444L16.7724 9.15469C16.935 9.09256 17.129 9.05823 17.3592 9.05823V8.75823ZM16.6654 8.87444L16.5583 8.59419C16.3185 8.6858 16.1092 8.81901 15.9354 8.99555L16.1492 9.20598L16.3631 9.41641C16.4719 9.30585 16.6066 9.21802 16.7724 9.15469L16.6654 8.87444ZM16.1492 9.20598L15.9354 8.99558C15.7646 9.16915 15.6358 9.3767 15.5471 9.61334L15.828 9.71868L16.1089 9.82401C16.1705 9.65961 16.2559 9.52537 16.3631 9.41638L16.1492 9.20598ZM15.828 9.71868L15.546 9.61615C15.4594 9.85444 15.4186 10.1143 15.4186 10.392H15.7186H16.0186C16.0186 10.173 16.0507 9.98396 16.1099 9.8212L15.828 9.71868ZM15.7186 10.392H15.4186V11.2192H15.7186H16.0186V10.392H15.7186ZM15.7186 11.2192H15.4186C15.4186 11.4154 15.4374 11.5979 15.4788 11.7636L15.7698 11.6908L16.0609 11.6181C16.034 11.5104 16.0186 11.3784 16.0186 11.2192H15.7186ZM15.7698 11.6908L15.4803 11.7694C15.5241 11.9309 15.589 12.0787 15.6808 12.2053L15.9237 12.0292L16.1665 11.8531C16.1262 11.7975 16.0885 11.7197 16.0594 11.6123L15.7698 11.6908ZM15.9237 12.0292L15.6859 12.2121C15.7791 12.3333 15.8931 12.4314 16.0288 12.4992L16.1629 12.2309L16.2971 11.9626C16.2504 11.9392 16.205 11.9029 16.1614 11.8463L15.9237 12.0292ZM16.1629 12.2309L16.0342 12.5019C16.1705 12.5666 16.3178 12.5958 16.4705 12.5958V12.2958V11.9958C16.3954 11.9958 16.3376 11.9818 16.2916 11.9599L16.1629 12.2309ZM16.4705 12.2958V12.5958C16.6216 12.5958 16.7671 12.5633 16.9008 12.4929L16.7611 12.2275L16.6213 11.962C16.5818 11.9828 16.5336 11.9958 16.4705 11.9958V12.2958ZM16.7611 12.2275L16.898 12.4944C17.0284 12.4275 17.1386 12.3335 17.2266 12.2161L16.9866 12.0361L16.7466 11.8561C16.7117 11.9027 16.6714 11.9363 16.6242 11.9605L16.7611 12.2275ZM16.9866 12.0361L17.2259 12.2171C17.3141 12.1005 17.3776 11.9683 17.4187 11.8245L17.1302 11.7421L16.8417 11.6597C16.819 11.7392 16.7868 11.803 16.7474 11.855L16.9866 12.0361ZM17.1302 11.7421L17.4175 11.8283C17.4611 11.6831 17.4815 11.5295 17.4815 11.3696H17.1815H16.8815C16.8815 11.4785 16.8676 11.5733 16.8429 11.6559L17.1302 11.7421ZM17.1815 11.3696H17.4815C17.4815 11.2097 17.4611 11.0561 17.4175 10.9108L17.1302 10.997L16.8429 11.0832C16.8676 11.1658 16.8815 11.2606 16.8815 11.3696H17.1815ZM17.1302 10.997L17.4191 10.9161C17.3781 10.7698 17.3142 10.6356 17.2235 10.5189L16.9866 10.7031L16.7498 10.8872C16.7867 10.9346 16.8185 10.9963 16.8413 11.0779L17.1302 10.997ZM16.9866 10.7031L17.2259 10.522C17.1353 10.4023 17.0224 10.3069 16.8884 10.2399L16.7542 10.5082L16.6201 10.7766C16.6684 10.8007 16.7104 10.8351 16.7474 10.8841L16.9866 10.7031ZM16.7542 10.5082L16.8884 10.2399C16.7509 10.1711 16.6016 10.1399 16.4466 10.1399V10.4399V10.7399C16.5195 10.7399 16.5753 10.7542 16.6201 10.7766L16.7542 10.5082ZM16.4466 10.4399V10.1399C16.2426 10.1399 16.0502 10.1885 15.8792 10.2937L16.0365 10.5492L16.1937 10.8047C16.2596 10.7641 16.3407 10.7399 16.4466 10.7399V10.4399ZM16.0365 10.5492L15.8806 10.2929C15.7244 10.3878 15.5972 10.5138 15.5048 10.6699L15.763 10.8227L16.0212 10.9755C16.061 10.9083 16.1161 10.8519 16.1923 10.8056L16.0365 10.5492ZM15.763 10.8227L15.5048 10.6699C15.4147 10.8222 15.3638 10.9879 15.3573 11.1636L15.6571 11.1747L15.9569 11.1858C15.9595 11.1155 15.9792 11.0465 16.0212 10.9755L15.763 10.8227ZM15.6571 11.1747L15.8194 10.9225L15.5221 10.7311L15.3597 10.9833L15.1973 11.2356L15.4947 11.427L15.6571 11.1747ZM15.3597 10.9833L15.6595 10.995C15.6649 10.8544 15.6939 10.7236 15.7456 10.6005L15.4691 10.4843L15.1925 10.3681C15.1121 10.5595 15.0681 10.7613 15.0599 10.9716L15.3597 10.9833ZM15.4691 10.4843L15.7442 10.6039C15.7981 10.4799 15.871 10.3716 15.9635 10.2774L15.7493 10.0673L15.5352 9.85721C15.3907 10.0045 15.2767 10.1743 15.1939 10.3647L15.4691 10.4843ZM15.7493 10.0673L15.9634 10.2775C16.0538 10.1853 16.1635 10.112 16.2961 10.0582L16.1834 9.7802L16.0707 9.50218C15.8661 9.58511 15.6864 9.70318 15.5352 9.85717L15.7493 10.0673ZM16.1834 9.7802L16.2993 10.0569C16.4259 10.0039 16.5758 9.97424 16.7542 9.97424V9.67424V9.37424C16.5088 9.37424 16.2782 9.41523 16.0675 9.5035L16.1834 9.7802ZM16.7542 9.67424V9.97424C16.9481 9.97424 17.104 10.0111 17.2305 10.0752L17.366 9.80754L17.5016 9.53992C17.2771 9.42623 17.0252 9.37424 16.7542 9.37424V9.67424ZM17.366 9.80754L17.2319 10.0759C17.3696 10.1447 17.4818 10.2375 17.5721 10.3555L17.8104 10.1733L18.0487 9.99103C17.9019 9.79914 17.718 9.64809 17.5002 9.53922L17.366 9.80754ZM17.8104 10.1733L17.5721 10.3555C17.6663 10.4787 17.7393 10.6237 17.789 10.794L18.077 10.7099L18.3649 10.6258C18.2962 10.3904 18.1914 10.1777 18.0487 9.99103L17.8104 10.1733ZM18.077 10.7099L17.789 10.794C17.8396 10.9672 17.8658 11.1551 17.8658 11.3593H18.1658H18.4658C18.4658 11.1032 18.4328 10.8582 18.3649 10.6258L18.077 10.7099ZM18.1658 11.3593H17.8658C17.8658 11.5672 17.8316 11.7548 17.7662 11.9249L18.0462 12.0326L18.3262 12.1403C18.4203 11.8957 18.4658 11.6344 18.4658 11.3593H18.1658ZM18.0462 12.0326L17.7652 11.9276C17.7015 12.0982 17.6101 12.2442 17.491 12.3688L17.7078 12.5761L17.9247 12.7834C18.1018 12.5981 18.236 12.3818 18.3272 12.1376L18.0462 12.0326ZM17.7078 12.5761L17.4894 12.3705C17.3735 12.4936 17.2332 12.5909 17.0648 12.662L17.1815 12.9384L17.2982 13.2148C17.5399 13.1127 17.7505 12.9685 17.9263 12.7817L17.7078 12.5761ZM17.1815 12.9384L17.0648 12.662C16.9016 12.7309 16.712 12.7683 16.491 12.7683V13.0683V13.3683C16.7805 13.3683 17.0511 13.3191 17.2982 13.2148L17.1815 12.9384ZM16.491 13.0683V12.7683C16.2636 12.7683 16.0652 12.7273 15.8912 12.6504L15.7698 12.9247L15.6485 13.1991C15.9075 13.3136 16.1898 13.3683 16.491 13.3683V13.0683ZM15.7698 12.9247L15.8946 12.6519C15.7184 12.5713 15.568 12.4598 15.441 12.316L15.2161 12.5146L14.9913 12.7132C15.1742 12.9203 15.3929 13.0822 15.6451 13.1975L15.7698 12.9247ZM15.2161 12.5146L15.441 12.316C15.3141 12.1723 15.2132 11.9985 15.1405 11.7902L14.8573 11.8891L14.574 11.988C14.6699 12.2628 14.8083 12.506 14.9913 12.7132L15.2161 12.5146ZM14.8573 11.8891L15.1413 11.7926C15.0711 11.5858 15.0342 11.3545 15.0342 11.0961H14.7342H14.4342C14.4342 11.412 14.4794 11.7093 14.5732 11.9856L14.8573 11.8891ZM14.7342 11.0961H15.0342V10.7133H14.7342H14.4342V11.0961H14.7342ZM14.7342 10.7133H15.0342C15.0342 10.3414 15.0881 10.0085 15.1917 9.71165L14.9085 9.61272L14.6253 9.51379C14.4966 9.88233 14.4342 10.2832 14.4342 10.7133H14.7342ZM14.9085 9.61272L15.1913 9.71277C15.2976 9.41229 15.4478 9.15812 15.6401 8.94605L15.4178 8.74456L15.1955 8.54306C14.9457 8.81863 14.7564 9.14323 14.6257 9.51267L14.9085 9.61272ZM15.4178 8.74456L15.641 8.94502C15.8322 8.73212 16.0628 8.56705 16.3363 8.44929L16.2176 8.17376L16.0989 7.89822C15.748 8.04934 15.4454 8.26481 15.1946 8.5441L15.4178 8.74456ZM16.2176 8.17376L16.3363 8.44929C16.6057 8.33327 16.9164 8.2721 17.2738 8.2721V7.9721V7.6721C16.8472 7.6721 16.4539 7.74536 16.0989 7.89822L16.2176 8.17376ZM22.7837 11.9028L23.0713 11.9881L23.0715 11.9874L22.7837 11.9028ZM22.4385 12.5658L22.212 12.3691L22.2118 12.3694L22.4385 12.5658ZM20.6646 12.9931L20.5777 13.2803L20.5812 13.2813L20.6646 12.9931ZM20.1963 12.7504L20.0089 12.9847L20.0108 12.9862L20.1963 12.7504ZM19.8408 12.3368L19.5814 12.4876L19.5839 12.4917L19.8408 12.3368ZM19.6153 11.7353L19.3226 11.8013L19.6153 11.7353ZM19.6563 9.1137L19.3693 9.02615L19.3689 9.02772L19.6563 9.1137ZM20.0015 8.45403L19.7763 8.25584L19.7748 8.25755L20.0015 8.45403ZM20.5347 8.07805L20.6434 8.35767L20.6461 8.3566L20.5347 8.07805ZM21.7754 8.03362L21.6874 8.32047L21.692 8.32179L21.7754 8.03362ZM22.5991 8.68303L22.3398 8.83376L22.3407 8.83529L22.5991 8.68303ZM22.8247 9.28118L22.5321 9.34717L22.5322 9.34779L22.8247 9.28118ZM21.8848 9.46917L21.5875 9.50948L21.5882 9.51441L21.8848 9.46917ZM21.7993 9.12737L21.5212 9.23993L21.5222 9.24227L21.7993 9.12737ZM20.9209 8.78899L20.7868 8.52065L20.7839 8.52212L20.9209 8.78899ZM20.7056 8.99749L20.959 9.15816L20.9607 9.15539L20.7056 8.99749ZM20.5689 9.37346L20.2748 9.3138L20.2742 9.31713L20.5689 9.37346ZM20.5518 11.5405L20.2544 11.5801L20.2551 11.585L20.5518 11.5405ZM20.6406 11.8925L20.3615 12.0028L20.3649 12.0107L20.6406 11.8925ZM20.7842 12.1283L20.5598 12.3278L20.568 12.3363L20.7842 12.1283ZM20.979 12.2582L20.8737 12.5391L20.8765 12.5402L20.979 12.2582ZM21.5156 12.2343L21.6527 12.5012L21.6554 12.4998L21.5156 12.2343ZM21.7344 12.0224L21.4803 11.8629L21.4793 11.8645L21.7344 12.0224ZM22.9033 10.0741H22.6033V10.9355H22.9033H23.2033V10.0741H22.9033ZM22.9033 10.9355H22.6033C22.6033 11.2892 22.5655 11.5816 22.4959 11.8181L22.7837 11.9028L23.0715 11.9874C23.1615 11.6816 23.2033 11.3292 23.2033 10.9355H22.9033ZM22.7837 11.9028L22.4961 11.8175C22.4259 12.0542 22.3288 12.2347 22.212 12.3691L22.4385 12.5658L22.665 12.7626C22.849 12.5507 22.9821 12.2891 23.0713 11.9881L22.7837 11.9028ZM22.4385 12.5658L22.2118 12.3694C22.0942 12.505 21.9569 12.6029 21.7973 12.6667L21.9087 12.9452L22.0201 13.2238C22.2707 13.1235 22.4865 12.9685 22.6652 12.7623L22.4385 12.5658ZM21.9087 12.9452L21.7973 12.6667C21.6321 12.7328 21.4427 12.7683 21.2251 12.7683V13.0683V13.3683C21.5088 13.3683 21.7752 13.3218 22.0201 13.2238L21.9087 12.9452ZM21.2251 13.0683V12.7683C21.0497 12.7683 20.8912 12.7464 20.748 12.7049L20.6646 12.9931L20.5812 13.2813C20.7843 13.3401 20.9995 13.3683 21.2251 13.3683V13.0683ZM20.6646 12.9931L20.7515 12.706C20.6132 12.6641 20.4908 12.6004 20.3818 12.5147L20.1963 12.7504L20.0108 12.9862C20.1799 13.1192 20.3696 13.2172 20.5777 13.2802L20.6646 12.9931ZM20.1963 12.7504L20.3837 12.5162C20.2776 12.4312 20.1817 12.3213 20.0978 12.182L19.8408 12.3368L19.5839 12.4917C19.7005 12.6851 19.8416 12.8509 20.0089 12.9847L20.1963 12.7504ZM19.8408 12.3368L20.1002 12.1861C20.0205 12.049 19.955 11.8783 19.9079 11.6693L19.6153 11.7353L19.3226 11.8013C19.3803 12.0571 19.4652 12.2875 19.5815 12.4876L19.8408 12.3368ZM19.6153 11.7353L19.9079 11.6693C19.8615 11.4633 19.8366 11.2196 19.8366 10.9355H19.5366H19.2366C19.2366 11.253 19.2642 11.5424 19.3226 11.8013L19.6153 11.7353ZM19.5366 10.9355H19.8366V10.0741H19.5366H19.2366V10.9355H19.5366ZM19.5366 10.0741H19.8366C19.8366 9.72027 19.8746 9.43069 19.9437 9.19968L19.6563 9.1137L19.3689 9.02772C19.2785 9.3299 19.2366 9.68062 19.2366 10.0741H19.5366ZM19.6563 9.1137L19.9432 9.20124C20.0159 8.96301 20.1134 8.78299 20.2282 8.65051L20.0015 8.45403L19.7748 8.25755C19.5934 8.46686 19.4607 8.72662 19.3693 9.02616L19.6563 9.1137ZM20.0015 8.45403L20.2267 8.65222C20.3465 8.5161 20.4847 8.41938 20.6434 8.35765L20.5347 8.07805L20.426 7.79845C20.1745 7.89623 19.9573 8.05016 19.7763 8.25584L20.0015 8.45403ZM20.5347 8.07805L20.6461 8.3566C20.8113 8.29052 21.0007 8.25501 21.2183 8.25501V7.95501V7.65501C20.9346 7.65501 20.6682 7.70152 20.4233 7.79951L20.5347 8.07805ZM21.2183 7.95501V8.25501C21.3926 8.25501 21.5483 8.27776 21.6875 8.32044L21.7754 8.03362L21.8634 7.7468C21.6607 7.68466 21.445 7.65501 21.2183 7.65501V7.95501ZM21.7754 8.03362L21.692 8.32179C21.8301 8.36176 21.9522 8.42358 22.0606 8.5071L22.2437 8.26946L22.4268 8.03182C22.2572 7.90115 22.0671 7.80574 21.8588 7.74545L21.7754 8.03362ZM22.2437 8.26946L22.0606 8.5071C22.1655 8.58794 22.2591 8.69503 22.3398 8.83376L22.5991 8.68303L22.8585 8.53231C22.7432 8.33379 22.5999 8.16517 22.4268 8.03182L22.2437 8.26946ZM22.5991 8.68303L22.3407 8.83529C22.4197 8.9694 22.485 9.13828 22.5321 9.34717L22.8247 9.28118L23.1174 9.21519C23.0597 8.95923 22.9746 8.72935 22.8576 8.53077L22.5991 8.68303ZM22.8247 9.28118L22.5322 9.34779C22.5785 9.55122 22.6033 9.79246 22.6033 10.0741H22.9033H23.2033C23.2033 9.75883 23.1757 9.47142 23.1172 9.21457L22.8247 9.28118ZM21.9156 11.0654H22.2156V9.94085H21.9156H21.6156V11.0654H21.9156ZM21.9156 9.94085H22.2156C22.2156 9.75022 22.2047 9.57724 22.1814 9.42393L21.8848 9.46917L21.5882 9.51441C21.6059 9.62998 21.6156 9.77145 21.6156 9.94085H21.9156ZM21.8848 9.46917L22.1821 9.42886C22.1615 9.27691 22.1278 9.13632 22.0765 9.01246L21.7993 9.12737L21.5222 9.24227C21.5483 9.30526 21.5717 9.39254 21.5875 9.50947L21.8848 9.46917ZM21.7993 9.12737L22.0774 9.01481C22.0279 8.89241 21.9613 8.77989 21.872 8.68701L21.6558 8.89495L21.4395 9.10288C21.4642 9.1285 21.4933 9.17092 21.5213 9.23993L21.7993 9.12737ZM21.6558 8.89495L21.872 8.68701C21.7858 8.5973 21.6835 8.52811 21.5663 8.48417L21.461 8.76506L21.3556 9.04596C21.3843 9.0567 21.4119 9.0741 21.4395 9.10288L21.6558 8.89495ZM21.461 8.76506L21.5663 8.48417C21.4553 8.44254 21.3381 8.42405 21.2183 8.42405V8.72405V9.02405C21.2762 9.02405 21.3208 9.0329 21.3556 9.04596L21.461 8.76506ZM21.2183 8.72405V8.42405C21.0672 8.42405 20.921 8.45356 20.7868 8.52066L20.9209 8.78899L21.0551 9.05732C21.0941 9.03783 21.1461 9.02405 21.2183 9.02405V8.72405ZM20.9209 8.78899L20.7839 8.52212C20.6426 8.59465 20.533 8.70627 20.4505 8.83958L20.7056 8.99749L20.9607 9.15539C20.9966 9.0973 21.0306 9.06991 21.058 9.05586L20.9209 8.78899ZM20.7056 8.99749L20.4522 8.83682C20.3667 8.97173 20.311 9.13546 20.2749 9.31381L20.5689 9.37346L20.8629 9.43312C20.8905 9.29701 20.926 9.21009 20.9589 9.15815L20.7056 8.99749ZM20.5689 9.37346L20.2742 9.31713C20.2399 9.49652 20.2244 9.70574 20.2244 9.94085H20.5244H20.8244C20.8244 9.72933 20.8386 9.5603 20.8635 9.4298L20.5689 9.37346ZM20.5244 9.94085H20.2244V11.0654H20.5244H20.8244V9.94085H20.5244ZM20.5244 11.0654H20.2244C20.2244 11.2549 20.234 11.427 20.2544 11.5801L20.5518 11.5405L20.8492 11.5008C20.8331 11.3805 20.8244 11.2359 20.8244 11.0654H20.5244ZM20.5518 11.5405L20.2551 11.585C20.278 11.7377 20.3124 11.8782 20.3617 12.0028L20.6406 11.8925L20.9196 11.7822C20.8914 11.7108 20.8666 11.6167 20.8485 11.496L20.5518 11.5405ZM20.6406 11.8925L20.3649 12.0107C20.4154 12.1285 20.4791 12.2366 20.56 12.3277L20.7842 12.1283L21.0084 11.929C20.98 11.897 20.9479 11.8479 20.9164 11.7743L20.6406 11.8925ZM20.7842 12.1283L20.568 12.3363C20.6542 12.426 20.7565 12.4952 20.8737 12.5391L20.979 12.2582L21.0844 11.9773C21.0557 11.9666 21.0281 11.9492 21.0005 11.9204L20.7842 12.1283ZM20.979 12.2582L20.8765 12.5402C20.988 12.5807 21.1051 12.5992 21.2251 12.5992V12.2992V11.9992C21.1674 11.9992 21.1205 11.9904 21.0816 11.9763L20.979 12.2582ZM21.2251 12.2992V12.5992C21.3748 12.5992 21.5199 12.5694 21.6527 12.5012L21.5156 12.2343L21.3786 11.9674C21.3428 11.9858 21.2942 11.9992 21.2251 11.9992V12.2992ZM21.5156 12.2343L21.6554 12.4998C21.7961 12.4257 21.9064 12.3146 21.9895 12.1803L21.7344 12.0224L21.4793 11.8645C21.4439 11.9216 21.4084 11.9517 21.3759 11.9688L21.5156 12.2343ZM21.7344 12.0224L21.9885 12.1819C22.076 12.0425 22.1318 11.8761 22.1659 11.6951L21.8711 11.6396L21.5763 11.584C21.5512 11.7175 21.5158 11.8063 21.4803 11.8629L21.7344 12.0224ZM21.8711 11.6396L22.1659 11.6951C22.2001 11.5138 22.2156 11.3027 22.2156 11.0654H21.9156H21.6156C21.6156 11.2792 21.6014 11.4509 21.5763 11.584L21.8711 11.6396Z" fill="#131921" mask="url(#path-3-outside-1_2002_93)"/>
</symbol>

  <!-- VIDEO -->
  <symbol id="video-icon" width="24" height="16" viewBox="0 0 24 16" fill="none" xmlns="http://www.w3.org/2000/svg">
   <path d="M21.4857 3.19277L16.3132 4.91325V3.0241C16.3132 1.91084 15.3944 1 14.2715 1H3.04176C1.91879 1 1 1.91084 1 3.0241V12.9759C1 14.0892 1.91879 15 3.04176 15H14.2715C15.3944 15 16.3132 14.0892 16.3132 12.9759V11.0699L21.5027 12.8072C22.2343 13.0602 23 12.5205 23 11.7446V4.25542C22.983 3.47952 22.2173 2.93976 21.4857 3.19277Z" stroke="#131921" stroke-width="2" stroke-miterlimit="10"/>
  </symbol>

  <!-- LIKE -->
  <symbol id="like-icon" width="26" height="24" viewBox="0 0 26 24" fill="none" xmlns="http://www.w3.org/2000/svg">
    <path d="M12.9266 22.9405C12.9559 22.9703 12.9853 22.9703 12.9853 23C17.0392 19.7595 25 13.6946 25 7.36216C25 3.85405 22.1799 1 18.7136 1C16.246 1 14.1016 2.45676 13.0734 4.56757C13.0441 4.62703 12.9853 4.77568 12.9853 4.77568C12.9853 4.77568 12.9266 4.65676 12.9266 4.62703C11.9278 2.48649 9.78335 1 7.28641 1C3.82007 1 1 3.85405 1 7.36216C1 13.7541 8.93146 19.7297 12.9266 22.9405Z" 
          stroke="var(--like-stroke, #131921)" 
          stroke-width="2" 
          stroke-linejoin="round"
          fill="var(--like-fill, none)"/>
  </symbol>

  <!-- LOCATION -->
  <symbol id="location-icon" width="17" height="21" viewBox="0 0 17 21" fill="none" xmlns="http://www.w3.org/2000/svg">
    <g opacity="0.8">
    <path d="M16 8.8C16 14.8 8.5 19 8.5 19C8.5 19 1 15.4 1 8.8C1 4.492 4.35769 1 8.5 1C12.6423 1 16 4.492 16 8.8Z" stroke="#818181" stroke-width="2"/>
    <path d="M8.5 10.36C9.60457 10.36 10.5 9.42877 10.5 8.28001C10.5 7.13126 9.60457 6.20001 8.5 6.20001C7.39543 6.20001 6.5 7.13126 6.5 8.28001C6.5 9.42877 7.39543 10.36 8.5 10.36Z" stroke="#818181" stroke-width="2"/>
    </g>
  </symbol>

  <!-- ROUTE -->
  <symbol id="route-icon" width="16" height="17" viewBox="0 0 16 17" fill="none" xmlns="http://www.w3.org/2000/svg">
    <g opacity="0.8">
    <path d="M4.95109 13.9892H11.6468C13.1649 13.9892 14.3914 12.7627 14.3914 11.2446C14.3914 9.72651 13.1649 8.49997 11.6468 8.49997H4.2775C2.75941 8.49997 1.53287 7.27343 1.53287 5.75534C1.53287 4.23725 2.75941 3.01071 4.2775 3.01071H10.0684" stroke="#818181" stroke-width="2"/>
    <path d="M3.01072 16C4.12121 16 5.02144 15.0998 5.02144 13.9893C5.02144 12.8788 4.12121 11.9786 3.01072 11.9786C1.90023 11.9786 1 12.8788 1 13.9893C1 15.0998 1.90023 16 3.01072 16Z" stroke="#818181" stroke-width="2"/>
    <path d="M12.3707 5.02144C13.4812 5.02144 14.3814 4.12121 14.3814 3.01072C14.3814 1.90023 13.4812 1 12.3707 1C11.2602 1 10.36 1.90023 10.36 3.01072C10.36 4.12121 11.2602 5.02144 12.3707 5.02144Z" stroke="#818181" stroke-width="2"/>
    </g>
  </symbol>

  <!-- METRO -->
  <symbol id="metro-icon" width="22" height="14" viewBox="0 0 22 14" fill="none" xmlns="http://www.w3.org/2000/svg">
    <g opacity="0.8">
    <path d="M18.7171 12.3305L15.1409 2.33051L11.0843 9.11358L7.02765 2.33051L3.45143 12.3305" stroke="#818181" stroke-width="2"/>
    <path d="M15.0969 12.3305H22.0002" stroke="#818181" stroke-width="2"/>
    <path d="M0 12.3305H6.90335" stroke="#818181" stroke-width="2"/>
    </g>
  </symbol>

  <!-- STAR EMPTY -->
  <symbol id="star-empty-icon" width="15" height="14" viewBox="0 0 15 14" fill="none" xmlns="http://www.w3.org/2000/svg">
   <path fill-rule="evenodd" clip-rule="evenodd" d="M7.26719 11.4926C7.12152 11.416 6.94751 11.416 6.80185 11.4926L3.22897 13.3709C2.86215 13.5638 2.43344 13.2523 2.50349 12.8438L3.18585 8.86539C3.21367 8.70319 3.1599 8.53769 3.04206 8.42282L0.151537 5.60527C-0.145221 5.316 0.0185345 4.81201 0.428645 4.75242L4.42324 4.17197C4.5861 4.14831 4.72688 4.04602 4.79971 3.89845L6.58615 0.278731C6.76955 -0.0928918 7.29948 -0.0928907 7.48288 0.278732L9.26932 3.89845C9.34215 4.04602 9.48293 4.14831 9.64579 4.17197L13.6404 4.75242C14.0505 4.81201 14.2143 5.316 13.9175 5.60527L11.027 8.42282C10.9091 8.53769 10.8554 8.70319 10.8832 8.86539L11.5655 12.8438C11.6356 13.2523 11.2069 13.5638 10.8401 13.3709L7.26719 11.4926Z" fill="#E9E9E9"/>
  </symbol>

  <!-- STAR HALF -->
  <symbol id="star-half-icon" width="16" height="16" viewBox="0 0 16 16" fill="none" xmlns="http://www.w3.org/2000/svg">
    <path fill-rule="evenodd" clip-rule="evenodd" d="M8.23267 12.1223C8.08701 12.0457 7.91299 12.0457 7.76733 12.1223L4.19445 14.0007C3.82764 14.1935 3.39892 13.8821 3.46898 13.4736L4.15134 9.49515C4.17916 9.33295 4.12538 9.16745 4.00754 9.05258L1.11702 6.23503C0.820263 5.94576 0.984019 5.44177 1.39413 5.38218L5.38873 4.80173C5.55158 4.77807 5.69236 4.67578 5.76519 4.52821L7.55163 0.908492C7.73504 0.536869 8.26496 0.53687 8.44837 0.908493L10.2348 4.52821C10.3076 4.67578 10.4484 4.77807 10.6113 4.80173L14.6059 5.38218C15.016 5.44177 15.1797 5.94576 14.883 6.23503L11.9925 9.05258C11.8746 9.16745 11.8208 9.33295 11.8487 9.49515L12.531 13.4736C12.6011 13.8821 12.1724 14.1935 11.8055 14.0007L8.23267 12.1223Z" fill="#E9E9E9"/>
    <g clip-path="url(#clip0_2001_92)">
    <path fill-rule="evenodd" clip-rule="evenodd" d="M8.23267 12.1223C8.08701 12.0457 7.91299 12.0457 7.76733 12.1223L4.19445 14.0007C3.82764 14.1935 3.39892 13.8821 3.46898 13.4736L4.15134 9.49515C4.17916 9.33295 4.12538 9.16745 4.00754 9.05258L1.11702 6.23503C0.820263 5.94576 0.984019 5.44177 1.39413 5.38218L5.38873 4.80173C5.55158 4.77807 5.69236 4.67578 5.76519 4.52821L7.55163 0.908492C7.73504 0.536869 8.26496 0.53687 8.44837 0.908493L10.2348 4.52821C10.3076 4.67578 10.4484 4.77807 10.6113 4.80173L14.6059 5.38218C15.016 5.44177 15.1797 5.94576 14.883 6.23503L11.9925 9.05258C11.8746 9.16745 11.8208 9.33295 11.8487 9.49515L12.531 13.4736C12.6011 13.8821 12.1724 14.1935 11.8055 14.0007L8.23267 12.1223Z" fill="#FDD91C"/>
    </g>
    <defs>
    <clipPath id="clip0_2001_92">
    <rect width="8" height="16" fill="white"/>
    </clipPath>
    </defs>
  </symbol>

  <!-- STAR FULL -->
  <symbol id="star-full-icon" width="15" height="14" viewBox="0 0 15 14" fill="none" xmlns="http://www.w3.org/2000/svg">
    <path fill-rule="evenodd" clip-rule="evenodd" d="M7.26719 11.4926C7.12153 11.416 6.94751 11.416 6.80185 11.4926L3.22897 13.3709C2.86216 13.5638 2.43344 13.2523 2.5035 12.8438L3.18586 8.86539C3.21368 8.70319 3.1599 8.53769 3.04206 8.42282L0.151541 5.60527C-0.145218 5.316 0.0185383 4.81201 0.428648 4.75242L4.42324 4.17197C4.5861 4.14831 4.72688 4.04602 4.79971 3.89845L6.58615 0.278731C6.76956 -0.0928918 7.29948 -0.0928907 7.48289 0.278732L9.26933 3.89845C9.34216 4.04602 9.48294 4.14831 9.64579 4.17197L13.6404 4.75242C14.0505 4.81201 14.2143 5.316 13.9175 5.60527L11.027 8.42282C10.9091 8.53769 10.8554 8.70319 10.8832 8.86539L11.5655 12.8438C11.6356 13.2523 11.2069 13.5638 10.8401 13.3709L7.26719 11.4926Z" fill="#FDD91C"/>
  </symbol>

</svg>