<svg xmlns="http://www.w3.org/2000/svg">
  
  <!-- HOME -->
  <symbol id="home-icon" width="20" height="22" viewBox="0 0 20 22" fill="#000000" xmlns="http://www.w3.org/2000/svg">
    <path fill-rule="evenodd" clip-rule="evenodd" d="M9.44726 0.169172C9.78412 -0.0564698 10.2239 -0.0563841 10.5606 0.169389L19.5569 6.20058C19.8338 6.38625 20 6.69775 20 7.03119V20.1215C20 20.6738 19.5523 21.1215 19 21.1215H1C0.447715 21.1215 0 20.6738 0 20.1215V7.03119C0 6.69761 0.166328 6.386 0.44347 6.20036L9.44726 0.169172ZM2 7.56496V19.1215H18V7.56471L10.0036 2.20378L2 7.56496Z" fill="white"/>
    <path fill-rule="evenodd" clip-rule="evenodd" d="M7.11467 14.4242C7.11467 13.8719 7.56238 13.4242 8.11467 13.4242H11.8927C12.445 13.4242 12.8927 13.8719 12.8927 14.4242V20.1519C12.8927 20.7042 12.445 21.1519 11.8927 21.1519C11.3404 21.1519 10.8927 20.7042 10.8927 20.1519V15.4242H9.11467V20.1519C9.11467 20.7042 8.66695 21.1519 8.11467 21.1519C7.56238 21.1519 7.11467 20.7042 7.11467 20.1519V14.4242Z" fill="white"/>
  </symbol >

  <!-- IMAGE -->
  <symbol id="image-icon" width="25" height="21" viewBox="0 0 25 21" fill="none" xmlns="http://www.w3.org/2000/svg">
    <path d="M23.4674 16C23.4674 18.2091 21.6766 20 19.4674 20H5.00001C2.79087 20 1 18.2091 1 16V10.5V5C1 2.79086 2.79086 1 5 1H19.4674C21.6766 1 23.4674 2.79086 23.4674 5V16Z" stroke="#131921" stroke-width="2" stroke-miterlimit="10"/>
    <path d="M1 11.0285C1 11.0285 6.35583 10.3067 11.8148 13.5228C17.2737 16.7388 23.4674 16.2232 23.4674 16.2232" stroke="#131921" stroke-width="2" stroke-miterlimit="10"/>
    <path d="M16.4488 10.1777C17.9652 10.1777 19.1944 8.94846 19.1944 7.43211C19.1944 5.91576 17.9652 4.68652 16.4488 4.68652C14.9325 4.68652 13.7032 5.91576 13.7032 7.43211C13.7032 8.94846 14.9325 10.1777 16.4488 10.1777Z" stroke="#131921" stroke-width="2" stroke-miterlimit="10"/>
  </symbol>

  <!-- 360 -->
  <symbol id="360-icon" width="32" height="28" viewBox="0 0 32 28" fill="none" xmlns="http://www.w3.org/200symbol">
    <path d="M5.40899 21.2185C2.79858 19.5068 1.17639 17.1318 1.17639 14.5001C1.17639 9.25795 7.62784 5.00007 15.6082 5.00007C23.5887 5.00007 30.0401 9.25795 30.0401 14.5001C30.0401 19.7422 23.5887 24.0001 15.6082 24.0001" stroke="#131921" stroke-width="2" stroke-miterlimit="10"/>
    <path d="M5.84782 16.4663L5.62226 22.0748L0.0401828 21.8481" stroke="#131921" stroke-width="2" stroke-miterlimit="10"/>
    <mask id="path-3-outside-1_1_24" maskUnits="userSpaceOnUse" x="8.13879" y="10" width="15" height="7" fill="black">
    <rect fill="white" x="8.13879" y="10" width="15" height="7"/>
    <path d="M10.4889 13.0845H11.0153C11.1839 13.0845 11.3229 13.056 11.4323 12.999C11.5416 12.9398 11.6225 12.8577 11.6749 12.7529C11.7296 12.6458 11.757 12.5216 11.757 12.3804C11.757 12.2528 11.7319 12.14 11.6818 12.042C11.6339 11.9417 11.5599 11.8643 11.4596 11.8096C11.3593 11.7526 11.2329 11.7241 11.0802 11.7241C10.9594 11.7241 10.8478 11.748 10.7452 11.7959C10.6427 11.8438 10.5607 11.911 10.4991 11.9976C10.4376 12.0841 10.4069 12.189 10.4069 12.312H9.41907C9.41907 12.0386 9.49198 11.8005 9.63782 11.5977C9.78593 11.3949 9.98417 11.2365 10.2325 11.1226C10.4809 11.0086 10.7544 10.9517 11.0529 10.9517C11.3901 10.9517 11.6852 11.0063 11.9381 11.1157C12.191 11.2228 12.3881 11.3812 12.5294 11.5908C12.6707 11.8005 12.7413 12.0602 12.7413 12.3701C12.7413 12.5273 12.7049 12.68 12.632 12.8281C12.559 12.974 12.4542 13.1061 12.3175 13.2246C12.1831 13.3408 12.019 13.4342 11.8253 13.5049C11.6316 13.5732 11.414 13.6074 11.1725 13.6074H10.4889V13.0845ZM10.4889 13.833V13.3237H11.1725C11.4436 13.3237 11.6818 13.3545 11.8868 13.416C12.0919 13.4775 12.264 13.5664 12.403 13.6826C12.542 13.7965 12.6468 13.9321 12.7174 14.0894C12.788 14.2443 12.8234 14.4163 12.8234 14.6055C12.8234 14.8379 12.7789 15.0452 12.6901 15.2275C12.6012 15.4076 12.4759 15.5602 12.3141 15.6855C12.1546 15.8109 11.9677 15.9066 11.7535 15.9727C11.5393 16.0365 11.3058 16.0684 11.0529 16.0684C10.8432 16.0684 10.637 16.0399 10.4342 15.9829C10.2337 15.9237 10.0514 15.8359 9.88733 15.7197C9.72555 15.6012 9.59566 15.4531 9.49768 15.2754C9.40198 15.0954 9.35413 14.8823 9.35413 14.6362H10.3419C10.3419 14.7638 10.3738 14.8778 10.4376 14.978C10.5014 15.0783 10.5892 15.1569 10.7008 15.2139C10.8147 15.2708 10.9412 15.2993 11.0802 15.2993C11.2374 15.2993 11.3719 15.2708 11.4835 15.2139C11.5975 15.1546 11.684 15.0726 11.7433 14.9678C11.8048 14.8607 11.8356 14.7365 11.8356 14.5952C11.8356 14.4129 11.8025 14.2671 11.7365 14.1577C11.6704 14.0461 11.5758 13.964 11.4528 13.9116C11.3297 13.8592 11.1839 13.833 11.0153 13.833H10.4889ZM16.8397 10.9722H16.9832V11.7583H16.9251C16.6654 11.7583 16.4341 11.797 16.2313 11.8745C16.0285 11.952 15.8564 12.0625 15.7152 12.2061C15.5762 12.3473 15.4691 12.5182 15.3939 12.7188C15.321 12.9193 15.2845 13.1437 15.2845 13.3921V14.2192C15.2845 14.397 15.3016 14.5542 15.3358 14.6909C15.3722 14.8254 15.4235 14.9382 15.4896 15.0293C15.5579 15.1182 15.6377 15.1854 15.7288 15.231C15.82 15.2743 15.9225 15.2959 16.0365 15.2959C16.1435 15.2959 16.2404 15.2731 16.327 15.2275C16.4158 15.182 16.491 15.1182 16.5526 15.0361C16.6164 14.9518 16.6642 14.8538 16.6961 14.7422C16.7303 14.6283 16.7474 14.5041 16.7474 14.3696C16.7474 14.2352 16.7303 14.111 16.6961 13.9971C16.6642 13.8831 16.6164 13.7852 16.5526 13.7031C16.4888 13.6188 16.4113 13.5539 16.3201 13.5083C16.229 13.4627 16.1265 13.4399 16.0125 13.4399C15.8576 13.4399 15.7209 13.4764 15.6024 13.5493C15.4862 13.62 15.395 13.7111 15.3289 13.8228C15.2629 13.9344 15.2275 14.0518 15.223 14.1748L14.9256 13.9834C14.9324 13.8079 14.9689 13.6416 15.035 13.4844C15.1033 13.3271 15.1968 13.1882 15.3153 13.0674C15.436 12.9443 15.5807 12.8486 15.7493 12.7803C15.918 12.7096 16.1082 12.6743 16.3201 12.6743C16.5526 12.6743 16.7565 12.7188 16.932 12.8076C17.1097 12.8965 17.2578 13.0184 17.3763 13.1733C17.4948 13.3283 17.5837 13.5072 17.6429 13.71C17.7021 13.9128 17.7318 14.1292 17.7318 14.3594C17.7318 14.6009 17.6919 14.8254 17.6121 15.0327C17.5347 15.2401 17.4219 15.4212 17.2738 15.5762C17.1279 15.7311 16.9525 15.8519 16.7474 15.9385C16.5423 16.0251 16.3122 16.0684 16.057 16.0684C15.7926 16.0684 15.5522 16.0205 15.3358 15.9248C15.1216 15.8268 14.937 15.6901 14.7821 15.5146C14.6271 15.3392 14.5075 15.1307 14.4232 14.8892C14.3411 14.6476 14.3001 14.3833 14.3001 14.0962V13.7134C14.3001 13.3123 14.3582 12.9455 14.4744 12.6128C14.5929 12.2778 14.7627 11.9884 14.9837 11.7446C15.2047 11.4985 15.4713 11.3083 15.7835 11.1738C16.0957 11.0394 16.4477 10.9722 16.8397 10.9722ZM22.4693 13.0742V13.9355C22.4693 14.3092 22.4294 14.6317 22.3496 14.9028C22.2699 15.1717 22.1548 15.3927 22.0044 15.5659C21.8563 15.7368 21.6797 15.8633 21.4746 15.9453C21.2696 16.0273 21.0417 16.0684 20.791 16.0684C20.5905 16.0684 20.4037 16.0433 20.2305 15.9932C20.0573 15.9408 19.9012 15.8599 19.7622 15.7505C19.6255 15.6411 19.507 15.5033 19.4068 15.3369C19.3088 15.1683 19.2336 14.9678 19.1812 14.7354C19.1288 14.5029 19.1026 14.2363 19.1026 13.9355V13.0742C19.1026 12.7005 19.1424 12.3804 19.2222 12.1138C19.3042 11.8449 19.4193 11.625 19.5674 11.4541C19.7178 11.2832 19.8955 11.1579 20.1006 11.0781C20.3057 10.9961 20.5336 10.9551 20.7842 10.9551C20.9847 10.9551 21.1704 10.9813 21.3413 11.0337C21.5145 11.0838 21.6706 11.1624 21.8096 11.2695C21.9486 11.3766 22.0671 11.5145 22.1651 11.6831C22.263 11.8494 22.3382 12.0488 22.3906 12.2812C22.4431 12.5114 22.4693 12.7757 22.4693 13.0742ZM21.4815 14.0654V12.9409C21.4815 12.7609 21.4712 12.6037 21.4507 12.4692C21.4325 12.3348 21.404 12.2209 21.3653 12.1274C21.3265 12.0317 21.2787 11.9543 21.2217 11.895C21.1647 11.8358 21.0998 11.7925 21.0269 11.7651C20.954 11.7378 20.8731 11.7241 20.7842 11.7241C20.6726 11.7241 20.5734 11.7458 20.4868 11.7891C20.4025 11.8324 20.3308 11.9019 20.2715 11.9976C20.2123 12.091 20.1667 12.2163 20.1348 12.3735C20.1052 12.5285 20.0904 12.7176 20.0904 12.9409V14.0654C20.0904 14.2454 20.0995 14.4038 20.1177 14.5405C20.1382 14.6772 20.1678 14.7946 20.2066 14.8926C20.2476 14.9883 20.2954 15.0669 20.3501 15.1284C20.4071 15.1877 20.472 15.231 20.5449 15.2583C20.6201 15.2856 20.7022 15.2993 20.791 15.2993C20.9004 15.2993 20.9973 15.2777 21.0816 15.2344C21.1682 15.1888 21.2411 15.1182 21.3003 15.0225C21.3618 14.9245 21.4074 14.7969 21.437 14.6396C21.4667 14.4824 21.4815 14.291 21.4815 14.0654Z"/>
    </mask>
    <path d="M10.4889 13.0845H11.0153C11.1839 13.0845 11.3229 13.056 11.4323 12.999C11.5416 12.9398 11.6225 12.8577 11.6749 12.7529C11.7296 12.6458 11.757 12.5216 11.757 12.3804C11.757 12.2528 11.7319 12.14 11.6818 12.042C11.6339 11.9417 11.5599 11.8643 11.4596 11.8096C11.3593 11.7526 11.2329 11.7241 11.0802 11.7241C10.9594 11.7241 10.8478 11.748 10.7452 11.7959C10.6427 11.8438 10.5607 11.911 10.4991 11.9976C10.4376 12.0841 10.4069 12.189 10.4069 12.312H9.41907C9.41907 12.0386 9.49198 11.8005 9.63782 11.5977C9.78593 11.3949 9.98417 11.2365 10.2325 11.1226C10.4809 11.0086 10.7544 10.9517 11.0529 10.9517C11.3901 10.9517 11.6852 11.0063 11.9381 11.1157C12.191 11.2228 12.3881 11.3812 12.5294 11.5908C12.6707 11.8005 12.7413 12.0602 12.7413 12.3701C12.7413 12.5273 12.7049 12.68 12.632 12.8281C12.559 12.974 12.4542 13.1061 12.3175 13.2246C12.1831 13.3408 12.019 13.4342 11.8253 13.5049C11.6316 13.5732 11.414 13.6074 11.1725 13.6074H10.4889V13.0845ZM10.4889 13.833V13.3237H11.1725C11.4436 13.3237 11.6818 13.3545 11.8868 13.416C12.0919 13.4775 12.264 13.5664 12.403 13.6826C12.542 13.7965 12.6468 13.9321 12.7174 14.0894C12.788 14.2443 12.8234 14.4163 12.8234 14.6055C12.8234 14.8379 12.7789 15.0452 12.6901 15.2275C12.6012 15.4076 12.4759 15.5602 12.3141 15.6855C12.1546 15.8109 11.9677 15.9066 11.7535 15.9727C11.5393 16.0365 11.3058 16.0684 11.0529 16.0684C10.8432 16.0684 10.637 16.0399 10.4342 15.9829C10.2337 15.9237 10.0514 15.8359 9.88733 15.7197C9.72555 15.6012 9.59566 15.4531 9.49768 15.2754C9.40198 15.0954 9.35413 14.8823 9.35413 14.6362H10.3419C10.3419 14.7638 10.3738 14.8778 10.4376 14.978C10.5014 15.0783 10.5892 15.1569 10.7008 15.2139C10.8147 15.2708 10.9412 15.2993 11.0802 15.2993C11.2374 15.2993 11.3719 15.2708 11.4835 15.2139C11.5975 15.1546 11.684 15.0726 11.7433 14.9678C11.8048 14.8607 11.8356 14.7365 11.8356 14.5952C11.8356 14.4129 11.8025 14.2671 11.7365 14.1577C11.6704 14.0461 11.5758 13.964 11.4528 13.9116C11.3297 13.8592 11.1839 13.833 11.0153 13.833H10.4889ZM16.8397 10.9722H16.9832V11.7583H16.9251C16.6654 11.7583 16.4341 11.797 16.2313 11.8745C16.0285 11.952 15.8564 12.0625 15.7152 12.2061C15.5762 12.3473 15.4691 12.5182 15.3939 12.7188C15.321 12.9193 15.2845 13.1437 15.2845 13.3921V14.2192C15.2845 14.397 15.3016 14.5542 15.3358 14.6909C15.3722 14.8254 15.4235 14.9382 15.4896 15.0293C15.5579 15.1182 15.6377 15.1854 15.7288 15.231C15.82 15.2743 15.9225 15.2959 16.0365 15.2959C16.1435 15.2959 16.2404 15.2731 16.327 15.2275C16.4158 15.182 16.491 15.1182 16.5526 15.0361C16.6164 14.9518 16.6642 14.8538 16.6961 14.7422C16.7303 14.6283 16.7474 14.5041 16.7474 14.3696C16.7474 14.2352 16.7303 14.111 16.6961 13.9971C16.6642 13.8831 16.6164 13.7852 16.5526 13.7031C16.4888 13.6188 16.4113 13.5539 16.3201 13.5083C16.229 13.4627 16.1265 13.4399 16.0125 13.4399C15.8576 13.4399 15.7209 13.4764 15.6024 13.5493C15.4862 13.62 15.395 13.7111 15.3289 13.8228C15.2629 13.9344 15.2275 14.0518 15.223 14.1748L14.9256 13.9834C14.9324 13.8079 14.9689 13.6416 15.035 13.4844C15.1033 13.3271 15.1968 13.1882 15.3153 13.0674C15.436 12.9443 15.5807 12.8486 15.7493 12.7803C15.918 12.7096 16.1082 12.6743 16.3201 12.6743C16.5526 12.6743 16.7565 12.7188 16.932 12.8076C17.1097 12.8965 17.2578 13.0184 17.3763 13.1733C17.4948 13.3283 17.5837 13.5072 17.6429 13.71C17.7021 13.9128 17.7318 14.1292 17.7318 14.3594C17.7318 14.6009 17.6919 14.8254 17.6121 15.0327C17.5347 15.2401 17.4219 15.4212 17.2738 15.5762C17.1279 15.7311 16.9525 15.8519 16.7474 15.9385C16.5423 16.0251 16.3122 16.0684 16.057 16.0684C15.7926 16.0684 15.5522 16.0205 15.3358 15.9248C15.1216 15.8268 14.937 15.6901 14.7821 15.5146C14.6271 15.3392 14.5075 15.1307 14.4232 14.8892C14.3411 14.6476 14.3001 14.3833 14.3001 14.0962V13.7134C14.3001 13.3123 14.3582 12.9455 14.4744 12.6128C14.5929 12.2778 14.7627 11.9884 14.9837 11.7446C15.2047 11.4985 15.4713 11.3083 15.7835 11.1738C16.0957 11.0394 16.4477 10.9722 16.8397 10.9722ZM22.4693 13.0742V13.9355C22.4693 14.3092 22.4294 14.6317 22.3496 14.9028C22.2699 15.1717 22.1548 15.3927 22.0044 15.5659C21.8563 15.7368 21.6797 15.8633 21.4746 15.9453C21.2696 16.0273 21.0417 16.0684 20.791 16.0684C20.5905 16.0684 20.4037 16.0433 20.2305 15.9932C20.0573 15.9408 19.9012 15.8599 19.7622 15.7505C19.6255 15.6411 19.507 15.5033 19.4068 15.3369C19.3088 15.1683 19.2336 14.9678 19.1812 14.7354C19.1288 14.5029 19.1026 14.2363 19.1026 13.9355V13.0742C19.1026 12.7005 19.1424 12.3804 19.2222 12.1138C19.3042 11.8449 19.4193 11.625 19.5674 11.4541C19.7178 11.2832 19.8955 11.1579 20.1006 11.0781C20.3057 10.9961 20.5336 10.9551 20.7842 10.9551C20.9847 10.9551 21.1704 10.9813 21.3413 11.0337C21.5145 11.0838 21.6706 11.1624 21.8096 11.2695C21.9486 11.3766 22.0671 11.5145 22.1651 11.6831C22.263 11.8494 22.3382 12.0488 22.3906 12.2812C22.4431 12.5114 22.4693 12.7757 22.4693 13.0742ZM21.4815 14.0654V12.9409C21.4815 12.7609 21.4712 12.6037 21.4507 12.4692C21.4325 12.3348 21.404 12.2209 21.3653 12.1274C21.3265 12.0317 21.2787 11.9543 21.2217 11.895C21.1647 11.8358 21.0998 11.7925 21.0269 11.7651C20.954 11.7378 20.8731 11.7241 20.7842 11.7241C20.6726 11.7241 20.5734 11.7458 20.4868 11.7891C20.4025 11.8324 20.3308 11.9019 20.2715 11.9976C20.2123 12.091 20.1667 12.2163 20.1348 12.3735C20.1052 12.5285 20.0904 12.7176 20.0904 12.9409V14.0654C20.0904 14.2454 20.0995 14.4038 20.1177 14.5405C20.1382 14.6772 20.1678 14.7946 20.2066 14.8926C20.2476 14.9883 20.2954 15.0669 20.3501 15.1284C20.4071 15.1877 20.472 15.231 20.5449 15.2583C20.6201 15.2856 20.7022 15.2993 20.791 15.2993C20.9004 15.2993 20.9973 15.2777 21.0816 15.2344C21.1682 15.1888 21.2411 15.1182 21.3003 15.0225C21.3618 14.9245 21.4074 14.7969 21.437 14.6396C21.4667 14.4824 21.4815 14.291 21.4815 14.0654Z" fill="#131921"/>
    <path d="M10.4889 13.0845V12.7845H10.1889V13.0845H10.4889ZM11.4323 12.999L11.5708 13.2651L11.5751 13.2628L11.4323 12.999ZM11.6749 12.7529L11.4077 12.6165L11.4066 12.6188L11.6749 12.7529ZM11.6818 12.042L11.4109 12.1713L11.4147 12.1786L11.6818 12.042ZM11.4596 11.8096L11.3114 12.0704L11.3159 12.0729L11.4596 11.8096ZM10.4991 11.9976L10.2546 11.8238L10.4991 11.9976ZM10.4069 12.312V12.612H10.7069V12.312H10.4069ZM9.41907 12.312H9.11907V12.612H9.41907V12.312ZM9.63782 11.5977L9.39554 11.4207L9.39425 11.4225L9.63782 11.5977ZM10.2325 11.1226L10.1075 10.8499L10.2325 11.1226ZM11.9381 11.1157L11.819 11.3911L11.8211 11.392L11.9381 11.1157ZM12.5294 11.5908L12.7782 11.4232L12.5294 11.5908ZM12.632 12.8281L12.9003 12.9623L12.9011 12.9606L12.632 12.8281ZM12.3175 13.2246L12.5137 13.4516L12.514 13.4513L12.3175 13.2246ZM11.8253 13.5049L11.9252 13.7878L11.9281 13.7867L11.8253 13.5049ZM10.4889 13.6074H10.1889V13.9074H10.4889V13.6074ZM10.4889 13.833H10.1889V14.133H10.4889V13.833ZM10.4889 13.3237V13.0237H10.1889V13.3237H10.4889ZM12.403 13.6826L12.2105 13.9128L12.2128 13.9146L12.403 13.6826ZM12.7174 14.0894L12.4438 14.2123L12.4444 14.2138L12.7174 14.0894ZM12.6901 15.2275L12.9591 15.3603L12.9597 15.359L12.6901 15.2275ZM12.3141 15.6855L12.1304 15.4484L12.1287 15.4497L12.3141 15.6855ZM11.7535 15.9727L11.8392 16.2602L11.842 16.2593L11.7535 15.9727ZM10.4342 15.9829L10.3492 16.2706L10.3531 16.2717L10.4342 15.9829ZM9.88733 15.7197L9.71005 15.9618L9.71392 15.9645L9.88733 15.7197ZM9.49768 15.2754L9.23276 15.4162L9.23496 15.4202L9.49768 15.2754ZM9.35413 14.6362V14.3362H9.05413V14.6362H9.35413ZM10.3419 14.6362H10.6419V14.3362H10.3419V14.6362ZM10.7008 15.2139L10.5645 15.4811L10.5666 15.4822L10.7008 15.2139ZM11.4835 15.2139L11.6199 15.4811L11.6219 15.48L11.4835 15.2139ZM11.7433 14.9678L11.4831 14.8183L11.4821 14.8202L11.7433 14.9678ZM11.7365 14.1577L11.4783 14.3105L11.4797 14.3128L11.7365 14.1577ZM10.4889 13.0845V13.3845H11.0153V13.0845V12.7845H10.4889V13.0845ZM11.0153 13.0845V13.3845C11.2153 13.3845 11.4059 13.351 11.5708 13.2651L11.4323 12.999L11.2937 12.7329C11.2399 12.761 11.1525 12.7845 11.0153 12.7845V13.0845ZM11.4323 12.999L11.5751 13.2628C11.7351 13.1762 11.8616 13.0504 11.9433 12.8871L11.6749 12.7529L11.4066 12.6188C11.3835 12.6651 11.3481 12.7034 11.2894 12.7352L11.4323 12.999ZM11.6749 12.7529L11.9421 12.8894C12.0218 12.7332 12.057 12.5608 12.057 12.3804H11.757H11.457C11.457 12.4825 11.4374 12.5584 11.4077 12.6165L11.6749 12.7529ZM11.757 12.3804H12.057C12.057 12.2128 12.0238 12.0519 11.9488 11.9053L11.6818 12.042L11.4147 12.1786C11.44 12.228 11.457 12.2927 11.457 12.3804H11.757ZM11.6818 12.042L11.9525 11.9128C11.8767 11.7539 11.7573 11.6302 11.6033 11.5462L11.4596 11.8096L11.3159 12.0729C11.3624 12.0983 11.3912 12.1296 11.411 12.1712L11.6818 12.042ZM11.4596 11.8096L11.6078 11.5487C11.45 11.4591 11.2685 11.4241 11.0802 11.4241V11.7241V12.0241C11.1972 12.0241 11.2686 12.0461 11.3114 12.0704L11.4596 11.8096ZM11.0802 11.7241V11.4241C10.9186 11.4241 10.7633 11.4564 10.6184 11.524L10.7452 11.7959L10.8721 12.0678C10.9323 12.0397 11.0003 12.0241 11.0802 12.0241V11.7241ZM10.7452 11.7959L10.6184 11.524C10.472 11.5924 10.3482 11.6921 10.2546 11.8238L10.4991 11.9976L10.7437 12.1713C10.7732 12.1298 10.8134 12.0951 10.8721 12.0678L10.7452 11.7959ZM10.4991 11.9976L10.2546 11.8238C10.1515 11.9689 10.1069 12.1369 10.1069 12.312H10.4069H10.7069C10.7069 12.241 10.7237 12.1994 10.7437 12.1713L10.4991 11.9976ZM10.4069 12.312V12.012H9.41907V12.312V12.612H10.4069V12.312ZM9.41907 12.312H9.71907C9.71907 12.0952 9.77574 11.9197 9.88138 11.7728L9.63782 11.5977L9.39425 11.4225C9.20823 11.6812 9.11907 11.982 9.11907 12.312H9.41907ZM9.63782 11.5977L9.88008 11.7746C9.99533 11.6168 10.1516 11.4897 10.3576 11.3952L10.2325 11.1226L10.1075 10.8499C9.81671 10.9833 9.57653 11.1729 9.39555 11.4207L9.63782 11.5977ZM10.2325 11.1226L10.3576 11.3952C10.5632 11.3009 10.7935 11.2517 11.0529 11.2517V10.9517V10.6517C10.7152 10.6517 10.3986 10.7163 10.1075 10.8499L10.2325 11.1226ZM11.0529 10.9517V11.2517C11.3581 11.2517 11.6111 11.3012 11.819 11.3911L11.9381 11.1157L12.0572 10.8404C11.7592 10.7115 11.4221 10.6517 11.0529 10.6517V10.9517ZM11.9381 11.1157L11.8211 11.392C12.0254 11.4785 12.1747 11.6012 12.2806 11.7585L12.5294 11.5908L12.7782 11.4232C12.6016 11.1612 12.3567 10.9672 12.0551 10.8395L11.9381 11.1157ZM12.5294 11.5908L12.2806 11.7585C12.3817 11.9084 12.4413 12.1063 12.4413 12.3701H12.7413H13.0413C13.0413 12.0141 12.9597 11.6925 12.7782 11.4232L12.5294 11.5908ZM12.7413 12.3701H12.4413C12.4413 12.4791 12.4165 12.5866 12.3628 12.6956L12.632 12.8281L12.9011 12.9606C12.9933 12.7734 13.0413 12.5756 13.0413 12.3701H12.7413ZM12.632 12.8281L12.3636 12.694C12.3102 12.8008 12.2312 12.9024 12.121 12.9979L12.3175 13.2246L12.514 13.4513C12.6772 13.3098 12.8079 13.1471 12.9003 12.9623L12.632 12.8281ZM12.3175 13.2246L12.1213 12.9976C12.0185 13.0866 11.8874 13.1629 11.7225 13.223L11.8253 13.5049L11.9281 13.7867C12.1506 13.7056 12.3477 13.5951 12.5137 13.4516L12.3175 13.2246ZM11.8253 13.5049L11.7255 13.222C11.5689 13.2772 11.3859 13.3074 11.1725 13.3074V13.6074V13.9074C11.4422 13.9074 11.6943 13.8693 11.9252 13.7878L11.8253 13.5049ZM11.1725 13.6074V13.3074H10.4889V13.6074V13.9074H11.1725V13.6074ZM10.4889 13.6074H10.7889V13.0845H10.4889H10.1889V13.6074H10.4889ZM10.4889 13.833H10.7889V13.3237H10.4889H10.1889V13.833H10.4889ZM10.4889 13.3237V13.6237H11.1725V13.3237V13.0237H10.4889V13.3237ZM11.1725 13.3237V13.6237C11.4218 13.6237 11.6298 13.6521 11.8006 13.7034L11.8868 13.416L11.973 13.1287C11.7337 13.0569 11.4655 13.0237 11.1725 13.0237V13.3237ZM11.8868 13.416L11.8006 13.7034C11.9738 13.7553 12.1078 13.8269 12.2105 13.9128L12.403 13.6826L12.5954 13.4525C12.4201 13.3059 12.2101 13.1998 11.973 13.1287L11.8868 13.416ZM12.403 13.6826L12.2128 13.9146C12.3175 14.0004 12.393 14.0992 12.4438 14.2123L12.7174 14.0894L12.9911 13.9664C12.9006 13.765 12.7664 13.5927 12.5931 13.4506L12.403 13.6826ZM12.7174 14.0894L12.4444 14.2138C12.4954 14.3255 12.5234 14.4545 12.5234 14.6055H12.8234H13.1234C13.1234 14.3782 13.0807 14.1631 12.9904 13.9649L12.7174 14.0894ZM12.8234 14.6055H12.5234C12.5234 14.799 12.4866 14.9603 12.4204 15.0961L12.6901 15.2275L12.9597 15.359C13.0713 15.1302 13.1234 14.8768 13.1234 14.6055H12.8234ZM12.6901 15.2275L12.4211 15.0947C12.3527 15.2331 12.2569 15.3504 12.1304 15.4484L12.3141 15.6855L12.4978 15.9227C12.6948 15.7701 12.8497 15.582 12.9591 15.3603L12.6901 15.2275ZM12.3141 15.6855L12.1287 15.4497C12.001 15.55 11.8478 15.6296 11.6651 15.686L11.7535 15.9727L11.842 16.2593C12.0876 16.1835 12.3081 16.0718 12.4994 15.9214L12.3141 15.6855ZM11.7535 15.9727L11.6679 15.6851C11.4849 15.7397 11.2805 15.7684 11.0529 15.7684V16.0684V16.3684C11.331 16.3684 11.5938 16.3333 11.8392 16.2602L11.7535 15.9727ZM11.0529 16.0684V15.7684C10.8708 15.7684 10.6919 15.7437 10.5153 15.6941L10.4342 15.9829L10.3531 16.2717C10.5821 16.3361 10.8157 16.3684 11.0529 16.3684V16.0684ZM10.4342 15.9829L10.5192 15.6952C10.349 15.6449 10.1968 15.5713 10.0607 15.4749L9.88733 15.7197L9.71392 15.9645C9.90596 16.1006 10.1183 16.2024 10.3492 16.2706L10.4342 15.9829ZM9.88733 15.7197L10.0646 15.4777C9.93846 15.3853 9.83757 15.2705 9.7604 15.1306L9.49768 15.2754L9.23496 15.4202C9.35375 15.6357 9.51263 15.8172 9.71007 15.9618L9.88733 15.7197ZM9.49768 15.2754L9.76257 15.1346C9.69424 15.006 9.65413 14.8433 9.65413 14.6362H9.35413H9.05413C9.05413 14.9213 9.10972 15.1847 9.23279 15.4162L9.49768 15.2754ZM9.35413 14.6362V14.9362H10.3419V14.6362V14.3362H9.35413V14.6362ZM10.3419 14.6362H10.0419C10.0419 14.8165 10.0878 14.9871 10.1845 15.1391L10.4376 14.978L10.6907 14.817C10.6598 14.7684 10.6419 14.7112 10.6419 14.6362H10.3419ZM10.4376 14.978L10.1845 15.1391C10.2787 15.287 10.4078 15.4012 10.5645 15.4811L10.7008 15.2139L10.8371 14.9466C10.7705 14.9126 10.7242 14.8695 10.6907 14.817L10.4376 14.978ZM10.7008 15.2139L10.5666 15.4822C10.7259 15.5618 10.899 15.5993 11.0802 15.5993V15.2993V14.9993C10.9835 14.9993 10.9035 14.9798 10.835 14.9455L10.7008 15.2139ZM11.0802 15.2993V15.5993C11.273 15.5993 11.4566 15.5644 11.6199 15.4811L11.4835 15.2139L11.3472 14.9466C11.2871 14.9773 11.2018 14.9993 11.0802 14.9993V15.2993ZM11.4835 15.2139L11.6219 15.48C11.7838 15.3959 11.9147 15.2742 12.0045 15.1154L11.7433 14.9678L11.4821 14.8202C11.4534 14.871 11.4111 14.9134 11.3451 14.9477L11.4835 15.2139ZM11.7433 14.9678L12.0034 15.1172C12.0946 14.9584 12.1356 14.7813 12.1356 14.5952H11.8356H11.5356C11.5356 14.6917 11.515 14.7629 11.4832 14.8183L11.7433 14.9678ZM11.8356 14.5952H12.1356C12.1356 14.3803 12.0972 14.1746 11.9932 14.0026L11.7365 14.1577L11.4797 14.3128C11.5079 14.3596 11.5356 14.4455 11.5356 14.5952H11.8356ZM11.7365 14.1577L11.9946 14.0049C11.8949 13.8365 11.7502 13.7122 11.5703 13.6356L11.4528 13.9116L11.3352 14.1876C11.4014 14.2158 11.4458 14.2556 11.4783 14.3105L11.7365 14.1577ZM11.4528 13.9116L11.5703 13.6356C11.4018 13.5638 11.2141 13.533 11.0153 13.533V13.833V14.133C11.1536 14.133 11.2577 14.1546 11.3352 14.1876L11.4528 13.9116ZM11.0153 13.833V13.533H10.4889V13.833V14.133H11.0153V13.833ZM16.9832 10.9722H17.2832V10.6722H16.9832V10.9722ZM16.9832 11.7583V12.0583H17.2832V11.7583H16.9832ZM15.7152 12.2061L15.5013 11.9956L15.5013 11.9957L15.7152 12.2061ZM15.3939 12.7188L15.113 12.6134L15.1119 12.6162L15.3939 12.7188ZM15.3358 14.6909L15.0447 14.7637L15.0462 14.7694L15.3358 14.6909ZM15.4896 15.0293L15.2466 15.2055L15.2518 15.2122L15.4896 15.0293ZM15.7288 15.231L15.5946 15.4993L15.6001 15.5019L15.7288 15.231ZM16.327 15.2275L16.1901 14.9606L16.1873 14.9621L16.327 15.2275ZM16.5526 15.0361L16.3133 14.8551L16.3126 14.8561L16.5526 15.0361ZM16.6961 14.7422L16.4087 14.656L16.4077 14.6598L16.6961 14.7422ZM16.6961 13.9971L16.4072 14.078L16.4088 14.0833L16.6961 13.9971ZM16.5526 13.7031L16.3133 13.8842L16.3158 13.8873L16.5526 13.7031ZM15.6024 13.5493L15.7582 13.8057L15.7596 13.8048L15.6024 13.5493ZM15.223 14.1748L15.0606 14.4271L15.5033 14.712L15.5228 14.1859L15.223 14.1748ZM14.9256 13.9834L14.6258 13.9717L14.6192 14.1429L14.7632 14.2357L14.9256 13.9834ZM15.035 13.4844L14.7598 13.3647L14.7584 13.3681L15.035 13.4844ZM15.3153 13.0674L15.1012 12.8572L15.1011 12.8573L15.3153 13.0674ZM15.7493 12.7803L15.8621 13.0583L15.8653 13.057L15.7493 12.7803ZM16.932 12.8076L16.7964 13.0753L16.7978 13.0759L16.932 12.8076ZM17.3763 13.1733L17.138 13.3556L17.3763 13.1733ZM17.6121 15.0327L17.3321 14.925L17.3311 14.9277L17.6121 15.0327ZM17.2738 15.5762L17.0569 15.3689L17.0553 15.3706L17.2738 15.5762ZM15.3358 15.9248L15.211 16.1976L15.2145 16.1992L15.3358 15.9248ZM14.4232 14.8892L14.1391 14.9856L14.1399 14.988L14.4232 14.8892ZM14.4744 12.6128L14.1916 12.5127L14.1912 12.5139L14.4744 12.6128ZM14.9837 11.7446L15.206 11.9461L15.2069 11.9451L14.9837 11.7446ZM15.7835 11.1738L15.6649 10.8983L15.7835 11.1738ZM16.8397 10.9722V11.2722H16.9832V10.9722V10.6722H16.8397V10.9722ZM16.9832 10.9722H16.6832V11.7583H16.9832H17.2832V10.9722H16.9832ZM16.9832 11.7583V11.4583H16.9251V11.7583V12.0583H16.9832V11.7583ZM16.9251 11.7583V11.4583C16.6358 11.4583 16.3672 11.5014 16.1242 11.5943L16.2313 11.8745L16.3383 12.1548C16.501 12.0926 16.6949 12.0583 16.9251 12.0583V11.7583ZM16.2313 11.8745L16.1242 11.5943C15.8844 11.6859 15.6751 11.8191 15.5013 11.9956L15.7152 12.2061L15.929 12.4165C16.0378 12.3059 16.1725 12.2181 16.3383 12.1548L16.2313 11.8745ZM15.7152 12.2061L15.5013 11.9957C15.3305 12.1692 15.2017 12.3768 15.113 12.6134L15.3939 12.7188L15.6748 12.8241C15.7364 12.6597 15.8218 12.5254 15.929 12.4165L15.7152 12.2061ZM15.3939 12.7188L15.1119 12.6162C15.0253 12.8545 14.9845 13.1144 14.9845 13.3921H15.2845H15.5845C15.5845 13.1731 15.6166 12.984 15.6758 12.8213L15.3939 12.7188ZM15.2845 13.3921H14.9845V14.2192H15.2845H15.5845V13.3921H15.2845ZM15.2845 14.2192H14.9845C14.9845 14.4154 15.0033 14.5979 15.0447 14.7637L15.3358 14.6909L15.6268 14.6182C15.5999 14.5105 15.5845 14.3785 15.5845 14.2192H15.2845ZM15.3358 14.6909L15.0462 14.7694C15.09 14.9309 15.1549 15.0788 15.2467 15.2054L15.4896 15.0293L15.7325 14.8532C15.6921 14.7975 15.6544 14.7198 15.6253 14.6124L15.3358 14.6909ZM15.4896 15.0293L15.2518 15.2122C15.345 15.3334 15.459 15.4315 15.5947 15.4993L15.7288 15.231L15.863 14.9626C15.8163 14.9393 15.7709 14.903 15.7274 14.8464L15.4896 15.0293ZM15.7288 15.231L15.6001 15.5019C15.7364 15.5667 15.8838 15.5959 16.0365 15.5959V15.2959V14.9959C15.9613 14.9959 15.9036 14.9818 15.8576 14.96L15.7288 15.231ZM16.0365 15.2959V15.5959C16.1875 15.5959 16.3331 15.5634 16.4667 15.493L16.327 15.2275L16.1873 14.9621C16.1477 14.9829 16.0996 14.9959 16.0365 14.9959V15.2959ZM16.327 15.2275L16.4639 15.4945C16.5944 15.4276 16.7045 15.3336 16.7926 15.2161L16.5526 15.0361L16.3126 14.8561C16.2776 14.9027 16.2373 14.9364 16.1901 14.9606L16.327 15.2275ZM16.5526 15.0361L16.7918 15.2172C16.88 15.1005 16.9435 14.9684 16.9846 14.8246L16.6961 14.7422L16.4077 14.6598C16.3849 14.7393 16.3527 14.8031 16.3133 14.8551L16.5526 15.0361ZM16.6961 14.7422L16.9835 14.8284C17.027 14.6831 17.0474 14.5295 17.0474 14.3696H16.7474H16.4474C16.4474 14.4786 16.4335 14.5734 16.4088 14.656L16.6961 14.7422ZM16.7474 14.3696H17.0474C17.0474 14.2097 17.027 14.0561 16.9835 13.9109L16.6961 13.9971L16.4088 14.0833C16.4335 14.1659 16.4474 14.2606 16.4474 14.3696H16.7474ZM16.6961 13.9971L16.985 13.9162C16.9441 13.7699 16.8802 13.6357 16.7894 13.5189L16.5526 13.7031L16.3158 13.8873C16.3526 13.9347 16.3844 13.9964 16.4072 14.078L16.6961 13.9971ZM16.5526 13.7031L16.7918 13.5221C16.7012 13.4024 16.5883 13.307 16.4543 13.24L16.3201 13.5083L16.186 13.7766C16.2343 13.8008 16.2763 13.8352 16.3133 13.8842L16.5526 13.7031ZM16.3201 13.5083L16.4543 13.24C16.3168 13.1712 16.1675 13.1399 16.0125 13.1399V13.4399V13.7399C16.0854 13.7399 16.1412 13.7542 16.186 13.7766L16.3201 13.5083ZM16.0125 13.4399V13.1399C15.8086 13.1399 15.6162 13.1886 15.4451 13.2938L15.6024 13.5493L15.7596 13.8048C15.8256 13.7642 15.9066 13.7399 16.0125 13.7399V13.4399ZM15.6024 13.5493L15.4465 13.293C15.2903 13.3879 15.1632 13.5138 15.0708 13.67L15.3289 13.8228L15.5871 13.9756C15.6269 13.9084 15.682 13.852 15.7582 13.8057L15.6024 13.5493ZM15.3289 13.8228L15.0708 13.67C14.9806 13.8222 14.9297 13.988 14.9232 14.1637L15.223 14.1748L15.5228 14.1859C15.5254 14.1155 15.5451 14.0466 15.5871 13.9756L15.3289 13.8228ZM15.223 14.1748L15.3853 13.9225L15.088 13.7311L14.9256 13.9834L14.7632 14.2357L15.0606 14.4271L15.223 14.1748ZM14.9256 13.9834L15.2254 13.9951C15.2309 13.8545 15.2598 13.7237 15.3116 13.6006L15.035 13.4844L14.7584 13.3681C14.678 13.5595 14.634 13.7614 14.6258 13.9717L14.9256 13.9834ZM15.035 13.4844L15.3101 13.604C15.364 13.4799 15.4369 13.3717 15.5294 13.2775L15.3153 13.0674L15.1011 12.8573C14.9566 13.0046 14.8426 13.1744 14.7599 13.3648L15.035 13.4844ZM15.3153 13.0674L15.5294 13.2775C15.6198 13.1854 15.7294 13.1121 15.8621 13.0583L15.7493 12.7803L15.6366 12.5023C15.4321 12.5852 15.2523 12.7033 15.1012 12.8572L15.3153 13.0674ZM15.7493 12.7803L15.8653 13.057C15.9918 13.004 16.1418 12.9743 16.3201 12.9743V12.6743V12.3743C16.0747 12.3743 15.8441 12.4153 15.6334 12.5036L15.7493 12.7803ZM16.3201 12.6743V12.9743C16.514 12.9743 16.67 13.0112 16.7964 13.0752L16.932 12.8076L17.0675 12.54C16.843 12.4263 16.5911 12.3743 16.3201 12.3743V12.6743ZM16.932 12.8076L16.7978 13.0759C16.9355 13.1448 17.0477 13.2376 17.138 13.3556L17.3763 13.1733L17.6146 12.9911C17.4679 12.7992 17.2839 12.6482 17.0661 12.5393L16.932 12.8076ZM17.3763 13.1733L17.138 13.3556C17.2322 13.4788 17.3052 13.6238 17.3549 13.7941L17.6429 13.71L17.9309 13.6258C17.8621 13.3905 17.7573 13.1778 17.6146 12.9911L17.3763 13.1733ZM17.6429 13.71L17.3549 13.7941C17.4055 13.9672 17.4318 14.1552 17.4318 14.3594H17.7318H18.0318C18.0318 14.1033 17.9988 13.8583 17.9309 13.6258L17.6429 13.71ZM17.7318 14.3594H17.4318C17.4318 14.5673 17.3976 14.7549 17.3321 14.925L17.6121 15.0327L17.8921 15.1404C17.9862 14.8958 18.0318 14.6345 18.0318 14.3594H17.7318ZM17.6121 15.0327L17.3311 14.9277C17.2674 15.0983 17.176 15.2443 17.0569 15.3689L17.2738 15.5762L17.4906 15.7835C17.6678 15.5982 17.8019 15.3819 17.8932 15.1377L17.6121 15.0327ZM17.2738 15.5762L17.0553 15.3706C16.9394 15.4937 16.7991 15.591 16.6307 15.6621L16.7474 15.9385L16.8641 16.2149C17.1058 16.1128 17.3164 15.9685 17.4922 15.7818L17.2738 15.5762ZM16.7474 15.9385L16.6307 15.6621C16.4676 15.731 16.2779 15.7684 16.057 15.7684V16.0684V16.3684C16.3464 16.3684 16.6171 16.3191 16.8641 16.2149L16.7474 15.9385ZM16.057 16.0684V15.7684C15.8295 15.7684 15.6311 15.7274 15.4571 15.6504L15.3358 15.9248L15.2145 16.1992C15.4734 16.3137 15.7558 16.3684 16.057 16.3684V16.0684ZM15.3358 15.9248L15.4606 15.652C15.2843 15.5714 15.1339 15.4598 15.0069 15.3161L14.7821 15.5146L14.5572 15.7132C14.7401 15.9204 14.9588 16.0823 15.211 16.1976L15.3358 15.9248ZM14.7821 15.5146L15.0069 15.3161C14.88 15.1724 14.7791 14.9985 14.7064 14.7903L14.4232 14.8892L14.1399 14.988C14.2359 15.2628 14.3742 15.506 14.5572 15.7132L14.7821 15.5146ZM14.4232 14.8892L14.7072 14.7927C14.637 14.5859 14.6001 14.3546 14.6001 14.0962H14.3001H14.0001C14.0001 14.412 14.0453 14.7094 14.1391 14.9856L14.4232 14.8892ZM14.3001 14.0962H14.6001V13.7134H14.3001H14.0001V14.0962H14.3001ZM14.3001 13.7134H14.6001C14.6001 13.3414 14.654 13.0085 14.7577 12.7117L14.4744 12.6128L14.1912 12.5139C14.0625 12.8824 14.0001 13.2832 14.0001 13.7134H14.3001ZM14.4744 12.6128L14.7573 12.7128C14.8636 12.4124 15.0137 12.1582 15.206 11.9461L14.9837 11.7446L14.7615 11.5431C14.5116 11.8187 14.3223 12.1433 14.1916 12.5127L14.4744 12.6128ZM14.9837 11.7446L15.2069 11.9451C15.3981 11.7322 15.6287 11.5671 15.9022 11.4494L15.7835 11.1738L15.6649 10.8983C15.314 11.0494 15.0114 11.2649 14.7605 11.5442L14.9837 11.7446ZM15.7835 11.1738L15.9022 11.4494C16.1716 11.3333 16.4824 11.2722 16.8397 11.2722V10.9722V10.6722C16.4131 10.6722 16.0198 10.7454 15.6649 10.8983L15.7835 11.1738ZM22.3496 14.9028L22.6372 14.9881L22.6374 14.9875L22.3496 14.9028ZM22.0044 15.5659L21.7779 15.3692L21.7777 15.3694L22.0044 15.5659ZM20.2305 15.9932L20.1436 16.2803L20.1471 16.2813L20.2305 15.9932ZM19.7622 15.7505L19.5748 15.9848L19.5767 15.9862L19.7622 15.7505ZM19.4068 15.3369L19.1473 15.4877L19.1498 15.4918L19.4068 15.3369ZM19.1812 14.7354L18.8885 14.8013L19.1812 14.7354ZM19.2222 12.1138L18.9352 12.0262L18.9348 12.0278L19.2222 12.1138ZM19.5674 11.4541L19.3422 11.2559L19.3407 11.2576L19.5674 11.4541ZM20.1006 11.0781L20.2093 11.3577L20.212 11.3567L20.1006 11.0781ZM21.3413 11.0337L21.2534 11.3205L21.2579 11.3219L21.3413 11.0337ZM22.1651 11.6831L21.9057 11.8338L21.9066 11.8354L22.1651 11.6831ZM22.3906 12.2812L22.098 12.3472L22.0981 12.3479L22.3906 12.2812ZM21.4507 12.4692L21.1534 12.5096L21.1541 12.5145L21.4507 12.4692ZM21.3653 12.1274L21.0872 12.24L21.0881 12.2423L21.3653 12.1274ZM20.4868 11.7891L20.3527 11.5207L20.3498 11.5222L20.4868 11.7891ZM20.2715 11.9976L20.5249 12.1582L20.5266 12.1555L20.2715 11.9976ZM20.1348 12.3735L19.8408 12.3139L19.8401 12.3172L20.1348 12.3735ZM20.1177 14.5405L19.8203 14.5802L19.821 14.585L20.1177 14.5405ZM20.2066 14.8926L19.9275 15.0029L19.9308 15.0108L20.2066 14.8926ZM20.3501 15.1284L20.1257 15.3279L20.1339 15.3364L20.3501 15.1284ZM20.5449 15.2583L20.4396 15.5392L20.4424 15.5402L20.5449 15.2583ZM21.0816 15.2344L21.2186 15.5013L21.2213 15.4999L21.0816 15.2344ZM21.3003 15.0225L21.0462 14.8629L21.0452 14.8646L21.3003 15.0225ZM22.4693 13.0742H22.1693V13.9355H22.4693H22.7693V13.0742H22.4693ZM22.4693 13.9355H22.1693C22.1693 14.2892 22.1314 14.5817 22.0618 14.8182L22.3496 14.9028L22.6374 14.9875C22.7274 14.6816 22.7693 14.3293 22.7693 13.9355H22.4693ZM22.3496 14.9028L22.062 14.8175C21.9918 15.0543 21.8947 15.2348 21.7779 15.3692L22.0044 15.5659L22.2309 15.7626C22.4149 15.5507 22.548 15.2891 22.6372 14.9881L22.3496 14.9028ZM22.0044 15.5659L21.7777 15.3694C21.6602 15.5051 21.5228 15.6029 21.3632 15.6668L21.4746 15.9453L21.5861 16.2239C21.8366 16.1236 22.0525 15.9686 22.2311 15.7624L22.0044 15.5659ZM21.4746 15.9453L21.3632 15.6668C21.198 15.7328 21.0086 15.7684 20.791 15.7684V16.0684V16.3684C21.0747 16.3684 21.3411 16.3218 21.5861 16.2239L21.4746 15.9453ZM20.791 16.0684V15.7684C20.6156 15.7684 20.4571 15.7465 20.3139 15.705L20.2305 15.9932L20.1471 16.2813C20.3502 16.3401 20.5654 16.3684 20.791 16.3684V16.0684ZM20.2305 15.9932L20.3174 15.706C20.1792 15.6642 20.0567 15.6004 19.9477 15.5147L19.7622 15.7505L19.5767 15.9862C19.7458 16.1193 19.9355 16.2173 20.1436 16.2803L20.2305 15.9932ZM19.7622 15.7505L19.9496 15.5162C19.8435 15.4313 19.7477 15.3213 19.6637 15.182L19.4068 15.3369L19.1498 15.4918C19.2664 15.6852 19.4076 15.8509 19.5748 15.9847L19.7622 15.7505ZM19.4068 15.3369L19.6662 15.1862C19.5865 15.049 19.521 14.8784 19.4738 14.6694L19.1812 14.7354L18.8885 14.8013C18.9462 15.0572 19.0311 15.2875 19.1474 15.4876L19.4068 15.3369ZM19.1812 14.7354L19.4738 14.6694C19.4274 14.4634 19.4026 14.2196 19.4026 13.9355H19.1026H18.8026C18.8026 14.253 18.8302 14.5425 18.8885 14.8013L19.1812 14.7354ZM19.1026 13.9355H19.4026V13.0742H19.1026H18.8026V13.9355H19.1026ZM19.1026 13.0742H19.4026C19.4026 12.7203 19.4405 12.4308 19.5096 12.1997L19.2222 12.1138L18.9348 12.0278C18.8444 12.33 18.8026 12.6807 18.8026 13.0742H19.1026ZM19.2222 12.1138L19.5091 12.2013C19.5818 11.9631 19.6793 11.7831 19.7941 11.6506L19.5674 11.4541L19.3407 11.2576C19.1593 11.4669 19.0266 11.7267 18.9352 12.0262L19.2222 12.1138ZM19.5674 11.4541L19.7926 11.6523C19.9124 11.5162 20.0506 11.4194 20.2093 11.3577L20.1006 11.0781L19.9919 10.7985C19.7404 10.8963 19.5232 11.0502 19.3422 11.2559L19.5674 11.4541ZM20.1006 11.0781L20.212 11.3567C20.3772 11.2906 20.5666 11.2551 20.7842 11.2551V10.9551V10.6551C20.5005 10.6551 20.2342 10.7016 19.9892 10.7996L20.1006 11.0781ZM20.7842 10.9551V11.2551C20.9585 11.2551 21.1142 11.2778 21.2534 11.3205L21.3413 11.0337L21.4293 10.7469C21.2267 10.6847 21.011 10.6551 20.7842 10.6551V10.9551ZM21.3413 11.0337L21.2579 11.3219C21.396 11.3618 21.5181 11.4236 21.6265 11.5072L21.8096 11.2695L21.9927 11.0319C21.8231 10.9012 21.633 10.8058 21.4248 10.7455L21.3413 11.0337ZM21.8096 11.2695L21.6265 11.5072C21.7314 11.588 21.8251 11.6951 21.9057 11.8338L22.1651 11.6831L22.4245 11.5324C22.3091 11.3339 22.1658 11.1652 21.9927 11.0319L21.8096 11.2695ZM22.1651 11.6831L21.9066 11.8354C21.9856 11.9695 22.0509 12.1384 22.098 12.3472L22.3906 12.2812L22.6833 12.2153C22.6256 11.9593 22.5405 11.7294 22.4236 11.5308L22.1651 11.6831ZM22.3906 12.2812L22.0981 12.3479C22.1445 12.5513 22.1693 12.7925 22.1693 13.0742H22.4693H22.7693C22.7693 12.7589 22.7417 12.4715 22.6832 12.2146L22.3906 12.2812ZM21.4815 14.0654H21.7815V12.9409H21.4815H21.1815V14.0654H21.4815ZM21.4815 12.9409H21.7815C21.7815 12.7503 21.7707 12.5773 21.7473 12.424L21.4507 12.4692L21.1541 12.5145C21.1718 12.63 21.1815 12.7715 21.1815 12.9409H21.4815ZM21.4507 12.4692L21.748 12.4289C21.7274 12.277 21.6937 12.1364 21.6424 12.0125L21.3653 12.1274L21.0881 12.2423C21.1143 12.3053 21.1376 12.3926 21.1534 12.5095L21.4507 12.4692ZM21.3653 12.1274L21.6433 12.0149C21.5938 11.8925 21.5273 11.78 21.438 11.6871L21.2217 11.895L21.0055 12.103C21.0301 12.1286 21.0592 12.171 21.0872 12.24L21.3653 12.1274ZM21.2217 11.895L21.438 11.6871C21.3517 11.5974 21.2494 11.5282 21.1322 11.4842L21.0269 11.7651L20.9215 12.046C20.9502 12.0568 20.9778 12.0742 21.0055 12.103L21.2217 11.895ZM21.0269 11.7651L21.1322 11.4842C21.0212 11.4426 20.904 11.4241 20.7842 11.4241V11.7241V12.0241C20.8421 12.0241 20.8867 12.033 20.9215 12.046L21.0269 11.7651ZM20.7842 11.7241V11.4241C20.6331 11.4241 20.4869 11.4536 20.3527 11.5207L20.4868 11.7891L20.621 12.0574C20.66 12.0379 20.712 12.0241 20.7842 12.0241V11.7241ZM20.4868 11.7891L20.3498 11.5222C20.2085 11.5947 20.099 11.7063 20.0164 11.8397L20.2715 11.9976L20.5266 12.1555C20.5626 12.0974 20.5965 12.07 20.6239 12.0559L20.4868 11.7891ZM20.2715 11.9976L20.0182 11.8369C19.9326 11.9718 19.877 12.1355 19.8408 12.3139L20.1348 12.3735L20.4288 12.4332C20.4564 12.2971 20.4919 12.2102 20.5249 12.1582L20.2715 11.9976ZM20.1348 12.3735L19.8401 12.3172C19.8058 12.4966 19.7904 12.7058 19.7904 12.9409H20.0904H20.3904C20.3904 12.7294 20.4045 12.5604 20.4295 12.4299L20.1348 12.3735ZM20.0904 12.9409H19.7904V14.0654H20.0904H20.3904V12.9409H20.0904ZM20.0904 14.0654H19.7904C19.7904 14.2549 19.7999 14.4271 19.8203 14.5802L20.1177 14.5405L20.4151 14.5009C20.399 14.3806 20.3904 14.2359 20.3904 14.0654H20.0904ZM20.1177 14.5405L19.821 14.585C19.8439 14.7377 19.8783 14.8783 19.9276 15.0029L20.2066 14.8926L20.4856 14.7823C20.4573 14.7109 20.4325 14.6168 20.4144 14.496L20.1177 14.5405ZM20.2066 14.8926L19.9308 15.0108C19.9813 15.1286 20.045 15.2367 20.1259 15.3277L20.3501 15.1284L20.5743 14.9291C20.5459 14.8971 20.5138 14.8479 20.4823 14.7744L20.2066 14.8926ZM20.3501 15.1284L20.1339 15.3364C20.2201 15.4261 20.3224 15.4953 20.4396 15.5392L20.5449 15.2583L20.6503 14.9774C20.6216 14.9667 20.594 14.9493 20.5664 14.9205L20.3501 15.1284ZM20.5449 15.2583L20.4424 15.5402C20.5539 15.5808 20.6711 15.5993 20.791 15.5993V15.2993V14.9993C20.7333 14.9993 20.6864 14.9905 20.6475 14.9764L20.5449 15.2583ZM20.791 15.2993V15.5993C20.9407 15.5993 21.0858 15.5694 21.2186 15.5012L21.0816 15.2344L20.9445 14.9675C20.9087 14.9859 20.8601 14.9993 20.791 14.9993V15.2993ZM21.0816 15.2344L21.2213 15.4999C21.362 15.4258 21.4723 15.3146 21.5554 15.1804L21.3003 15.0225L21.0452 14.8646C21.0099 14.9217 20.9743 14.9518 20.9418 14.9689L21.0816 15.2344ZM21.3003 15.0225L21.5544 15.182C21.6419 15.0426 21.6978 14.8762 21.7318 14.6952L21.437 14.6396L21.1422 14.5841C21.1171 14.7176 21.0817 14.8064 21.0463 14.8629L21.3003 15.0225ZM21.437 14.6396L21.7318 14.6952C21.766 14.5139 21.7815 14.3027 21.7815 14.0654H21.4815H21.1815C21.1815 14.2793 21.1673 14.4509 21.1422 14.5841L21.437 14.6396Z" fill="#131921" mask="url(#path-3-outside-1_1_24)"/>
  </symbol>

  <!-- VIDEO -->
  <symbol id="video-icon" width="24" height="16" viewBox="0 0 24 16" fill="none" xmlns="http://www.w3.org/2000/svg">
   <path d="M21.4857 3.19277L16.3132 4.91325V3.0241C16.3132 1.91084 15.3944 1 14.2715 1H3.04176C1.91879 1 1 1.91084 1 3.0241V12.9759C1 14.0892 1.91879 15 3.04176 15H14.2715C15.3944 15 16.3132 14.0892 16.3132 12.9759V11.0699L21.5027 12.8072C22.2343 13.0602 23 12.5205 23 11.7446V4.25542C22.983 3.47952 22.2173 2.93976 21.4857 3.19277Z" stroke="#131921" stroke-width="2" stroke-miterlimit="10"/>
  </symbol>

  <!-- EMPTY LIKE -->
  <symbol id="empty-like-icon" width="26" height="24" viewBox="0 0 26 24" fill="none" xmlns="http://www.w3.org/2000/svg">
    <path d="M12.9266 22.9405C12.9559 22.9703 12.9853 22.9703 12.9853 23C17.0392 19.7595 25 13.6946 25 7.36216C25 3.85405 22.1799 1 18.7136 1C16.246 1 14.1016 2.45676 13.0734 4.56757C13.0441 4.62703 12.9853 4.77568 12.9853 4.77568C12.9853 4.77568 12.9266 4.65676 12.9266 4.62703C11.9278 2.48649 9.78335 1 7.28641 1C3.82007 1 1 3.85405 1 7.36216C1 13.7541 8.93146 19.7297 12.9266 22.9405Z" stroke="#131921" stroke-width="2" stroke-linejoin="round"/>
  </symbol>

  <!-- LIKE -->
  <symbol id="like-icon" width="24" height="22" viewBox="0 0 24 22" fill="none" xmlns="http://www.w3.org/2000/svg">
    <path d="M11.9266 21.9405C11.9559 21.9703 11.9853 21.9703 11.9853 22C16.0392 18.7595 24 12.6946 24 6.36216C24 2.85405 21.1799 0 17.7136 0C15.246 0 13.1016 1.45676 12.0734 3.56757C12.0441 3.62703 11.9853 3.77568 11.9853 3.77568C11.9853 3.77568 11.9266 3.65676 11.9266 3.62703C10.9278 1.48649 8.78335 0 6.28641 0C2.82007 0 0 2.85405 0 6.36216C0 12.7541 7.93146 18.7297 11.9266 21.9405Z" fill="#FF4338"/>
  </symbol>

  <!-- LOCATION -->
  <symbol id="location-icon" width="17" height="21" viewBox="0 0 17 21" fill="none" xmlns="http://www.w3.org/2000/svg">
    <g opacity="0.8">
    <path d="M16 8.8C16 14.8 8.5 19 8.5 19C8.5 19 1 15.4 1 8.8C1 4.492 4.35769 1 8.5 1C12.6423 1 16 4.492 16 8.8Z" stroke="#818181" stroke-width="2"/>
    <path d="M8.5 10.36C9.60457 10.36 10.5 9.42877 10.5 8.28001C10.5 7.13126 9.60457 6.20001 8.5 6.20001C7.39543 6.20001 6.5 7.13126 6.5 8.28001C6.5 9.42877 7.39543 10.36 8.5 10.36Z" stroke="#818181" stroke-width="2"/>
    </g>
  </symbol>

  <!-- ROUTE -->
  <symbol id="route-icon" width="16" height="17" viewBox="0 0 16 17" fill="none" xmlns="http://www.w3.org/2000/svg">
    <g opacity="0.8">
    <path d="M4.95109 13.9892H11.6468C13.1649 13.9892 14.3914 12.7627 14.3914 11.2446C14.3914 9.72651 13.1649 8.49997 11.6468 8.49997H4.2775C2.75941 8.49997 1.53287 7.27343 1.53287 5.75534C1.53287 4.23725 2.75941 3.01071 4.2775 3.01071H10.0684" stroke="#818181" stroke-width="2"/>
    <path d="M3.01072 16C4.12121 16 5.02144 15.0998 5.02144 13.9893C5.02144 12.8788 4.12121 11.9786 3.01072 11.9786C1.90023 11.9786 1 12.8788 1 13.9893C1 15.0998 1.90023 16 3.01072 16Z" stroke="#818181" stroke-width="2"/>
    <path d="M12.3707 5.02144C13.4812 5.02144 14.3814 4.12121 14.3814 3.01072C14.3814 1.90023 13.4812 1 12.3707 1C11.2602 1 10.36 1.90023 10.36 3.01072C10.36 4.12121 11.2602 5.02144 12.3707 5.02144Z" stroke="#818181" stroke-width="2"/>
    </g>
  </symbol>

  <!-- METRO -->
  <symbol id="metro-icon" width="22" height="14" viewBox="0 0 22 14" fill="none" xmlns="http://www.w3.org/2000/svg">
    <g opacity="0.8">
    <path d="M18.7171 12.3305L15.1409 2.33051L11.0843 9.11358L7.02765 2.33051L3.45143 12.3305" stroke="#818181" stroke-width="2"/>
    <path d="M15.0969 12.3305H22.0002" stroke="#818181" stroke-width="2"/>
    <path d="M0 12.3305H6.90335" stroke="#818181" stroke-width="2"/>
    </g>
  </symbol>

  <!-- STAR EMPTY -->
  <symbol id="star-empty-icon" width="15" height="14" viewBox="0 0 15 14" fill="none" xmlns="http://www.w3.org/2000/svg">
   <path fill-rule="evenodd" clip-rule="evenodd" d="M7.26719 11.4926C7.12152 11.416 6.94751 11.416 6.80185 11.4926L3.22897 13.3709C2.86215 13.5638 2.43344 13.2523 2.50349 12.8438L3.18585 8.86539C3.21367 8.70319 3.1599 8.53769 3.04206 8.42282L0.151537 5.60527C-0.145221 5.316 0.0185345 4.81201 0.428645 4.75242L4.42324 4.17197C4.5861 4.14831 4.72688 4.04602 4.79971 3.89845L6.58615 0.278731C6.76955 -0.0928918 7.29948 -0.0928907 7.48288 0.278732L9.26932 3.89845C9.34215 4.04602 9.48293 4.14831 9.64579 4.17197L13.6404 4.75242C14.0505 4.81201 14.2143 5.316 13.9175 5.60527L11.027 8.42282C10.9091 8.53769 10.8554 8.70319 10.8832 8.86539L11.5655 12.8438C11.6356 13.2523 11.2069 13.5638 10.8401 13.3709L7.26719 11.4926Z" fill="#E9E9E9"/>
  </symbol>

  <!-- STAR HALF -->
  <symbol id="star-half-icon" width="16" height="16" viewBox="0 0 16 16" fill="none" xmlns="http://www.w3.org/2000/svg">
    <path fill-rule="evenodd" clip-rule="evenodd" d="M8.23267 12.1223C8.08701 12.0457 7.91299 12.0457 7.76733 12.1223L4.19445 14.0007C3.82764 14.1935 3.39892 13.8821 3.46898 13.4736L4.15134 9.49515C4.17916 9.33295 4.12538 9.16745 4.00754 9.05258L1.11702 6.23503C0.820263 5.94576 0.984019 5.44177 1.39413 5.38218L5.38873 4.80173C5.55158 4.77807 5.69236 4.67578 5.76519 4.52821L7.55163 0.908492C7.73504 0.536869 8.26496 0.53687 8.44837 0.908493L10.2348 4.52821C10.3076 4.67578 10.4484 4.77807 10.6113 4.80173L14.6059 5.38218C15.016 5.44177 15.1797 5.94576 14.883 6.23503L11.9925 9.05258C11.8746 9.16745 11.8208 9.33295 11.8487 9.49515L12.531 13.4736C12.6011 13.8821 12.1724 14.1935 11.8055 14.0007L8.23267 12.1223Z" fill="#E9E9E9"/>
    <g clip-path="url(#clip0_2001_92)">
    <path fill-rule="evenodd" clip-rule="evenodd" d="M8.23267 12.1223C8.08701 12.0457 7.91299 12.0457 7.76733 12.1223L4.19445 14.0007C3.82764 14.1935 3.39892 13.8821 3.46898 13.4736L4.15134 9.49515C4.17916 9.33295 4.12538 9.16745 4.00754 9.05258L1.11702 6.23503C0.820263 5.94576 0.984019 5.44177 1.39413 5.38218L5.38873 4.80173C5.55158 4.77807 5.69236 4.67578 5.76519 4.52821L7.55163 0.908492C7.73504 0.536869 8.26496 0.53687 8.44837 0.908493L10.2348 4.52821C10.3076 4.67578 10.4484 4.77807 10.6113 4.80173L14.6059 5.38218C15.016 5.44177 15.1797 5.94576 14.883 6.23503L11.9925 9.05258C11.8746 9.16745 11.8208 9.33295 11.8487 9.49515L12.531 13.4736C12.6011 13.8821 12.1724 14.1935 11.8055 14.0007L8.23267 12.1223Z" fill="#FDD91C"/>
    </g>
    <defs>
    <clipPath id="clip0_2001_92">
    <rect width="8" height="16" fill="white"/>
    </clipPath>
    </defs>
  </symbol>

  <!-- STAR FULL -->
  <symbol id="star-full-icon" width="15" height="14" viewBox="0 0 15 14" fill="none" xmlns="http://www.w3.org/2000/svg">
    <path fill-rule="evenodd" clip-rule="evenodd" d="M7.26719 11.4926C7.12153 11.416 6.94751 11.416 6.80185 11.4926L3.22897 13.3709C2.86216 13.5638 2.43344 13.2523 2.5035 12.8438L3.18586 8.86539C3.21368 8.70319 3.1599 8.53769 3.04206 8.42282L0.151541 5.60527C-0.145218 5.316 0.0185383 4.81201 0.428648 4.75242L4.42324 4.17197C4.5861 4.14831 4.72688 4.04602 4.79971 3.89845L6.58615 0.278731C6.76956 -0.0928918 7.29948 -0.0928907 7.48289 0.278732L9.26933 3.89845C9.34216 4.04602 9.48294 4.14831 9.64579 4.17197L13.6404 4.75242C14.0505 4.81201 14.2143 5.316 13.9175 5.60527L11.027 8.42282C10.9091 8.53769 10.8554 8.70319 10.8832 8.86539L11.5655 12.8438C11.6356 13.2523 11.2069 13.5638 10.8401 13.3709L7.26719 11.4926Z" fill="#FDD91C"/>
  </symbol>

</svg>